<?xml version="1.0" encoding="UTF-8"?>
<svg width="341px" height="240px" viewBox="0 0 341 240" version="1.1" xmlns="http://www.w3.org/2000/svg" xmlns:xlink="http://www.w3.org/1999/xlink">
    <!-- Generator: sketchtool 55.1 (78136) - https://sketchapp.com -->
    <title>14DEB309-BA82-4381-A9E8-7A160DFDF3B8</title>
    <desc>Created with sketchtool.</desc>
    <defs>
        <linearGradient x1="50.0473806%" y1="99.997641%" x2="50.0473806%" y2="-0.0142947503%" id="linearGradient-1">
            <stop stop-color="#808080" stop-opacity="0.25" offset="0%"></stop>
            <stop stop-color="#808080" stop-opacity="0.12" offset="54%"></stop>
            <stop stop-color="#808080" stop-opacity="0.1" offset="100%"></stop>
        </linearGradient>
    </defs>
    <g id="Promoções" stroke="none" stroke-width="1" fill="none" fill-rule="evenodd">
        <g id="Promoções---Tela-inicial-com-Promoções---Ativas---Empty-State" transform="translate(-638.000000, -437.000000)">
            <g id="nova-promocao" transform="translate(638.000000, 437.000000)">
                <path d="M209.906719,29.3565217 C195.282213,39.5952569 176.313043,38.9343874 159.690119,33.6063241 C143.067194,28.2782609 127.797628,18.7920949 111.601581,12.0505929 C98.1025791,6.42029781 83.8799914,2.71297309 69.3501976,1.03715415 C48.7083004,-1.32490119 25.656917,1.55256917 11.2758893,18.112253 C-4.73992095,36.5438735 -3.50988142,69.7960474 13.8055336,86.7288538 C22.6181818,95.3359684 34.1565217,99.5604743 44.2181818,106.279842 C54.2798419,112.999209 63.601581,124.151779 62.744664,137.116206 C61.9509881,149.132016 52.7272727,158.339921 43.1810277,164.12332 C35.8039526,168.591304 26.7193676,173.470356 25.83083,182.725692 C24.970751,191.680632 32.6102767,198.697233 39.9051383,202.687747 C63.7027668,215.709091 93.027668,215.582609 116.743083,202.371542 C125.198419,197.644269 132.964427,191.370751 141.833992,187.709091 C165.12253,178.058498 190.785771,187.775494 215.44664,191.326482 C236.401018,194.328444 257.756413,192.774246 278.055336,186.76996 C290.267194,183.162055 302.526482,177.647431 311.105138,167.373913 C317.293281,159.965217 321.147826,150.592885 324.765217,141.331225 C328.622925,131.459289 332.332016,121.516733 335.89249,111.503557 C338.026877,105.495652 340.129644,99.3675889 340.683004,92.9359684 C341.682213,81.2837945 337.470356,69.7644269 331.734387,59.9304348 C318.115415,36.5628458 295.177866,20.1454545 270.336759,15.9747036 C245.495652,11.8039526 219.21581,19.9494071 199.949407,37.773913" id="Path" fill="#FF7101" fill-rule="nonzero" opacity="0.1"></path>
                <g id="Group" opacity="0.1" transform="translate(169.486166, 32.569170)" fill="#000000" fill-rule="nonzero">
                    <path d="M1.47035573,0.442687747 L0.265612648,70.3241107 C0.265612648,70.3241107 43.8766798,70.3241107 80.9833992,82.3715415 L81.7043478,11.7754941 C81.7043478,11.7754941 22.1913043,-2.45059289 1.47035573,0.442687747 Z" id="Path"></path>
                </g>
                <path d="M170.007905,31.7470356 L168.803162,101.628458 C168.803162,101.628458 212.414229,101.628458 249.520949,113.675889 L250.241897,43.0798419 C250.241897,43.0798419 190.728854,28.8537549 170.007905,31.7470356 Z" id="Path" fill="#F7F7FD" fill-rule="nonzero"></path>
                <g id="Group" opacity="0.1" transform="translate(68.616601, 34.466403)" fill="#000000" fill-rule="nonzero">
                    <path d="M80.4458498,0.547035573 L81.6505929,70.4284585 C81.6505929,70.4284585 38.0395257,70.4284585 0.935968379,82.4758893 L0.211857708,11.8798419 C0.211857708,11.8798419 59.7249012,-2.33043478 80.4458498,0.547035573 Z" id="Path"></path>
                </g>
                <path d="M150.011067,33.4324111 L151.21581,103.313834 C151.21581,103.313834 107.604743,103.313834 70.5011858,115.361265 L69.7770751,44.7652174 C69.7770751,44.7652174 129.290119,30.5549407 150.011067,33.4324111 Z" id="Path" fill="#F7F7FD" fill-rule="nonzero"></path>
                <g id="Group" opacity="0.2" transform="translate(87.272727, 41.106719)" fill="#FF7101" fill-rule="nonzero">
                    <path d="M43.1494071,0.477470356 L43.7976285,37.9509881 C43.7976285,37.9509881 20.398419,37.9509881 0.509090909,44.4110672 L0.120158103,6.55177866 C0.120158103,6.55177866 32.0379447,-1.06561265 43.1494071,0.477470356 Z" id="Path"></path>
                </g>
                <g id="Group" opacity="0.1" transform="translate(276.679842, 58.498024)" fill="#000000" fill-rule="nonzero">
                    <path d="M0.215019763,0.218181818 L0.215019763,69.36917 C0.215019763,69.36917 14.4442688,67.6806324 44.3098814,104.547036 L46.9596838,35.3960474 C46.9596838,35.3960474 15.8766798,1.90355731 0.215019763,0.218181818 Z" id="Path"></path>
                </g>
                <path d="M276.262451,57.7675889 L276.262451,126.918577 C276.262451,126.918577 290.4917,125.23004 320.357312,162.096443 L323.007115,92.9454545 C323.007115,92.9454545 291.924111,59.4529644 276.262451,57.7675889 Z" id="Path" fill="#F7F7FD" fill-rule="nonzero"></path>
                <g id="Group" opacity="0.1" transform="translate(0.000000, 58.814229)" fill="#000000" fill-rule="nonzero">
                    <path d="M46.9027668,0.218181818 L46.9027668,69.36917 C46.9027668,69.36917 32.686166,67.6806324 2.82687747,104.547036 L0.161264822,35.3960474 C0.161264822,35.3960474 31.2411067,1.90355731 46.9027668,0.218181818 Z" id="Path"></path>
                </g>
                <path d="M47.8513834,57.7675889 L47.8513834,126.918577 C47.8513834,126.918577 33.6347826,125.23004 3.77549407,162.096443 L1.10988142,92.9454545 C1.10988142,92.9454545 32.1897233,59.4529644 47.8513834,57.7675889 Z" id="Path" fill="#F7F7FD" fill-rule="nonzero"></path>
                <g id="Group" opacity="0.2" transform="translate(181.501976, 46.166008)" fill="#FF7101" fill-rule="nonzero">
                    <polygon id="Path" points="0.158102767 0.116996047 29.7011858 5.40079051 29.7011858 9.70434783 0.158102767 4.03162055"></polygon>
                </g>
                <polygon id="Path" fill="#FFFFFF" fill-rule="nonzero" points="124.743083 87.8640316 95.2031621 93.1478261 95.2031621 97.4513834 124.743083 91.7786561"></polygon>
                <polygon id="Path" fill="#FFFFFF" fill-rule="nonzero" points="182.052174 54.3051383 236.047431 65.4577075 236.047431 69.7612648 182.052174 58.2197628"></polygon>
                <polygon id="Path" fill="#FFFFFF" fill-rule="nonzero" points="182.052174 62.3272727 236.047431 73.4766798 236.047431 77.7833992 182.052174 66.2387352"></polygon>
                <g id="Group" opacity="0.2" transform="translate(288.695652, 80.000000)" fill="#FF7101" fill-rule="nonzero">
                    <polygon id="Path" points="0.158102767 0.0980237154 0.158102767 3.89565217 11.7407115 13.3059289 12.284585 10.0490119"></polygon>
                </g>
                <polygon id="Path" fill="#FFFFFF" fill-rule="nonzero" points="288.853755 116.777866 288.853755 120.575494 300.436364 129.985771 300.980237 126.728854"></polygon>
                <polygon id="Path" fill="#FFFFFF" fill-rule="nonzero" points="289.037154 86.6118577 288.853755 90.4126482 310.750988 111.038735 310.390514 106.697233"></polygon>
                <polygon id="Path" fill="#FFFFFF" fill-rule="nonzero" points="288.853755 93.6695652 288.853755 97.2869565 310.750988 118.279842 310.750988 113.574704"></polygon>
                <g id="Group" opacity="0.2" transform="translate(13.280632, 80.632411)" fill="#FF7101" fill-rule="nonzero">
                    <polygon id="Path" points="21.7960474 0.287747036 21.9762846 4.08853755 0.0822134387 24.7146245 0.442687747 20.3731225"></polygon>
                </g>
                <g id="Group" opacity="0.2" transform="translate(13.280632, 87.905138)" fill="#FF7101" fill-rule="nonzero">
                    <polygon id="Path" points="21.9762846 0.0727272727 21.9762846 3.69011858 0.0822134387 24.683004 0.0822134387 19.9778656"></polygon>
                </g>
                <ellipse id="Oval" fill="#FF7101" fill-rule="nonzero" opacity="0.1" cx="64.6988142" cy="196.958103" rx="18.0237154" ry="3.24426877"></ellipse>
                <path d="M21.9541502,179.120949 C21.9541502,179.120949 23.6901186,181.391304 21.1509881,184.812648 C18.6118577,188.233992 16.5185771,191.136759 17.3565217,193.274308 C17.3565217,193.274308 21.1857708,186.905929 24.3130435,186.817391 C27.4403162,186.728854 25.3849802,182.966008 21.9541502,179.120949 Z" id="Path" fill="#FF7101" fill-rule="nonzero"></path>
                <path d="M21.9541502,179.120949 C22.1062864,179.33955 22.2256015,179.579245 22.3083004,179.832411 C25.3501976,183.405534 26.972332,186.741502 24.0474308,186.826877 C21.3249012,186.902767 18.0395257,191.775494 17.2743083,193.005534 C17.2996047,193.097233 17.3312253,193.192095 17.3660079,193.283794 C17.3660079,193.283794 21.1952569,186.915415 24.3225296,186.826877 C27.4498024,186.73834 25.3849802,182.966008 21.9541502,179.120949 Z" id="Path" fill="#000000" fill-rule="nonzero" opacity="0.1"></path>
                <path d="M25.1826087,182.017391 C25.1826087,182.817391 25.0940711,183.465613 24.9833992,183.465613 C24.8727273,183.465613 24.7810277,182.817391 24.7810277,182.017391 C24.7810277,181.217391 24.8948617,181.593676 25.0055336,181.593676 C25.1162055,181.593676 25.1826087,181.214229 25.1826087,182.017391 Z" id="Path" fill="#FFD037" fill-rule="nonzero"></path>
                <path d="M26.2924901,182.966008 C25.5905138,183.348617 24.9770751,183.579447 24.9233202,183.484585 C24.8695652,183.389723 25.3976285,182.997628 26.0996047,182.61502 C26.801581,182.232411 26.5233202,182.510672 26.5770751,182.61502 C26.63083,182.719368 26.9944664,182.586561 26.2924901,182.966008 Z" id="Path" fill="#FFD037" fill-rule="nonzero"></path>
                <path d="M12.7778656,179.120949 C12.7778656,179.120949 11.0482213,181.38498 13.5778656,184.822134 C16.1075099,188.259289 18.2102767,191.146245 17.372332,193.283794 C17.372332,193.283794 13.543083,186.915415 10.4158103,186.826877 C7.28853755,186.73834 9.35019763,182.966008 12.7778656,179.120949 Z" id="Path" fill="#FF7101" fill-rule="nonzero"></path>
                <path d="M12.7778656,179.120949 C12.6271197,179.340371 12.5079075,179.57986 12.4237154,179.832411 C9.38181818,183.405534 7.75968379,186.741502 10.684585,186.826877 C13.4102767,186.902767 16.6924901,191.775494 17.4577075,193.005534 C17.4328743,193.100079 17.4022499,193.193008 17.3660079,193.283794 C17.3660079,193.283794 13.5367589,186.915415 10.4094862,186.826877 C7.28221344,186.73834 9.35019763,182.966008 12.7778656,179.120949 Z" id="Path" fill="#000000" fill-rule="nonzero" opacity="0.1"></path>
                <path d="M9.54940711,182.017391 C9.54940711,182.817391 9.63794466,183.465613 9.7486166,183.465613 C9.85928854,183.465613 9.95098814,182.817391 9.95098814,182.017391 C9.95098814,181.217391 9.83715415,181.593676 9.72648221,181.593676 C9.61581028,181.593676 9.54940711,181.214229 9.54940711,182.017391 Z" id="Path" fill="#FFD037" fill-rule="nonzero"></path>
                <path d="M8.44268775,182.966008 C9.14466403,183.348617 9.75494071,183.579447 9.80869565,183.484585 C9.86245059,183.389723 9.33438735,182.997628 8.63241107,182.61502 C7.93043478,182.232411 8.20869565,182.510672 8.15494071,182.61502 C8.10118577,182.719368 7.74071146,182.586561 8.44268775,182.966008 Z" id="Path" fill="#FFD037" fill-rule="nonzero"></path>
                <path d="M10.0996047,192.986561 C10.0996047,192.986561 14.9565217,192.837945 16.4237154,191.794466 C17.8909091,190.750988 23.8924901,189.5083 24.2561265,191.181028 C24.6197628,192.853755 31.5541502,199.494071 26.0711462,199.53834 C20.5881423,199.582609 13.3312253,198.684585 11.8703557,197.792885 C10.4094862,196.901186 10.0996047,192.986561 10.0996047,192.986561 Z" id="Path" fill="#A8A8A8" fill-rule="nonzero"></path>
                <path d="M26.16917,198.956522 C20.686166,199.000791 13.429249,198.102767 11.9683794,197.211067 C10.855336,196.534387 10.4126482,194.102767 10.2640316,192.980237 L10.1027668,192.980237 C10.1027668,192.980237 10.4189723,196.898024 11.8703557,197.786561 C13.3217391,198.675099 20.5881423,199.576285 26.0711462,199.532016 C27.6521739,199.532016 28.2023715,198.956522 28.170751,198.121739 C27.9525692,198.63083 27.3486166,198.947036 26.16917,198.956522 Z" id="Path" fill="#000000" fill-rule="nonzero" opacity="0.2"></path>
                <ellipse id="Oval" fill="#FF7101" fill-rule="nonzero" opacity="0.1" cx="189.881423" cy="149.157312" rx="29.7233202" ry="5.09090909"></ellipse>
                <path d="M183.886166,80.4490119 C183.741108,80.7583067 183.634898,81.0843701 183.56996,81.4197628 C183.550988,81.5040843 183.532016,81.5926219 183.513043,81.6853755 C183.32332,82.6529644 183.196838,83.8703557 183.130435,84.5786561 C183.098814,84.9328063 183.083004,85.1604743 183.083004,85.1604743 C183.083004,85.1604743 176.224506,84.7019763 177.413439,83.5509881 C177.71997,83.2332319 177.937998,82.8407817 178.04585,82.4126482 C178.080632,82.2893281 178.109091,82.1660079 178.134387,82.0395257 C178.191069,81.7525343 178.228046,81.4620006 178.245059,81.1699605 C178.245059,81.0972332 178.245059,81.0245059 178.245059,80.9486166 C178.260523,80.4743508 178.238319,79.9996058 178.178656,79.5288538 C178.178656,79.5288538 180.407905,79.5288538 182.090119,79.7090909 C183.222134,79.8387352 184.104348,80.0632411 183.886166,80.4490119 Z" id="Path" fill="#D38884" fill-rule="nonzero"></path>
                <path d="M171.996838,113.084585 C169.660079,113.008696 171.383399,108.142292 171.652174,107.487747 C171.920949,106.833202 171.253755,105.23004 171.253755,105.23004 C171.253755,105.23004 170.463241,100.594466 170.463241,100.290909 C170.422873,99.6589502 170.334075,99.0310202 170.197628,98.4126482 C170.115371,97.7813652 170.225579,97.1399531 170.513834,96.572332 C170.782609,96.1517787 170.741502,94.4664032 170.741502,94.4664032 L170.741502,92.284585 L171.263241,91.5952569 L172.594466,92.8600791 L172.964427,93.2079051 L173.61581,95.6490119 L173.38498,99.1462451 L173.26166,102.551779 L174.067984,107.263241 C174.067984,107.263241 174.349407,113.163636 171.996838,113.084585 Z" id="Path" fill="#D38884" fill-rule="nonzero"></path>
                <polygon id="Path" fill="#000000" fill-rule="nonzero" opacity="0.1" points="172.736759 93.4387352 170.744664 92.6102767 170.744664 92.287747 171.263241 91.598419 172.597628 92.856917"></polygon>
                <path d="M171.819763,88.455336 C171.563669,89.0842712 171.378082,89.7396568 171.266403,90.4094862 C171.16347,91.0521315 170.988453,91.6811323 170.744664,92.284585 L172.958103,93.2047431 L171.819763,88.455336 Z" id="Path" fill="#4C4981" fill-rule="nonzero"></path>
                <path d="M171.819763,88.455336 C171.563669,89.0842712 171.378082,89.7396568 171.266403,90.4094862 C171.16347,91.0521315 170.988453,91.6811323 170.744664,92.284585 L172.958103,93.2047431 L171.819763,88.455336 Z" id="Path" fill="#000000" fill-rule="nonzero" opacity="0.05"></path>
                <path d="M189.451383,136.831621 L189.267984,137.223715 C189.267984,137.223715 189.068775,138.52332 189.068775,138.554941 C189.068775,138.586561 188.493281,139.452964 188.493281,139.452964 L187.048221,139.76917 L186.434783,139.693281 C186.402118,139.336056 186.347202,138.981217 186.270356,138.63083 C186.248221,138.532806 186.226087,138.431621 186.197628,138.330435 C185.981672,137.519802 185.641403,136.74753 185.188933,136.041107 C185.188933,136.041107 184.116996,133.397628 183.734387,133.052964 C183.351779,132.7083 181.894071,129.220553 182.049012,128.379447 C182.131225,127.917787 182.064822,126.368379 181.988933,125.078261 C181.925692,124.025296 181.856126,123.139921 181.856126,123.139921 L185.495652,120.989723 L185.919368,121.656917 L186.172332,122.052174 C186.172332,122.052174 186.172332,122.128063 186.156522,122.254545 L186.156522,122.301976 C186.114687,122.839729 186.008528,123.370527 185.840316,123.883004 C185.840316,123.883004 185.568379,125.837154 185.840316,126.181818 C186.112253,126.526482 186.978656,131.133597 187.171542,133.264822 C187.171542,133.331225 187.171542,133.397628 187.171542,133.457708 C187.247431,134.437945 187.854545,135.310672 188.464822,135.949407 L188.464822,135.949407 C188.502767,135.993676 188.543874,136.034783 188.58498,136.075889 C188.856057,136.347426 189.145545,136.599936 189.451383,136.831621 L189.451383,136.831621 Z" id="Path" fill="#D38884" fill-rule="nonzero"></path>
                <path d="M186.434783,139.686957 L187.048221,139.762846 L188.493281,139.44664 C188.493281,139.44664 189.068775,138.577075 189.068775,138.548617 C189.068775,138.520158 189.267984,137.217391 189.267984,137.217391 L189.451383,136.825296 L189.473518,136.777866 C189.120226,136.533135 188.788098,136.259182 188.480632,135.958893 L188.480632,135.958893 C188.44585,135.927273 188.411067,135.895652 188.379447,135.86087 C188.347826,135.826087 188.58498,137.125692 187.484585,137.6917 C186.950198,137.966798 186.510672,138.178656 186.203953,138.324111 L186.434783,139.686957 Z" id="Path" fill="#000000" fill-rule="nonzero" opacity="0.1"></path>
                <path d="M189.704348,137.01502 L189.498814,137.454545 C189.498814,137.454545 189.299605,138.75415 189.299605,138.785771 C189.299605,138.817391 188.724111,139.683794 188.724111,139.683794 L187.279051,140 L186.447431,139.901976 C186.447431,139.734387 186.418972,139.497233 186.377866,139.209486 C186.352569,139.035573 186.317787,138.842688 186.270356,138.633992 C186.586561,138.4917 187.07668,138.257708 187.705929,137.932016 C188.809486,137.366008 188.600791,136.101186 188.600791,136.101186 C188.839532,136.339058 189.091866,136.562885 189.356522,136.771542 C189.5083,136.879051 189.631621,136.964427 189.704348,137.01502 Z" id="Path" fill="#CEDDF9" fill-rule="nonzero"></path>
                <path d="M189.704348,137.01502 L189.498814,137.454545 C189.498814,137.454545 189.299605,138.75415 189.299605,138.785771 C189.299605,138.817391 188.724111,139.683794 188.724111,139.683794 L187.279051,140 L186.447431,139.901976 C186.447431,139.734387 186.418972,139.497233 186.377866,139.209486 C186.554696,139.21755 186.730406,139.241895 186.902767,139.282213 C186.902767,139.282213 188.875889,139.702767 188.970751,138.140711 C189.027668,137.255336 189.211067,136.90751 189.356522,136.771542 C189.5083,136.879051 189.631621,136.964427 189.704348,137.01502 Z" id="Path" fill="#000000" fill-rule="nonzero" opacity="0.1"></path>
                <path d="M189.558893,136.910672 C189.558893,136.910672 189.068775,136.803162 188.970751,138.362055 C188.872727,139.920949 186.902767,139.503557 186.902767,139.503557 C186.902767,139.503557 185.935178,139.263241 185.925692,139.664822 C185.95799,140.036164 186.045377,140.400631 186.18498,140.746245 C186.18498,140.746245 186.241897,141.675889 186.425296,141.897233 C186.608696,142.118577 186.4917,142.940711 186.4917,142.940711 C186.4917,142.940711 186.567589,143.55415 188.0917,142.940711 C188.0917,142.940711 189.451383,142.659289 190.580237,140.967589 C190.618182,140.910672 190.447431,140.736759 191.433992,140.382609 C192.420553,140.028458 195.228458,137.758103 195.026087,136.648221 C194.981419,136.272743 194.718025,135.959653 194.355731,135.851383 C194.057425,135.771829 193.739682,135.815106 193.473518,135.971542 C193.206943,136.115796 192.931262,136.242546 192.648221,136.350988 C192.27242,136.503136 191.875906,136.598 191.471937,136.632411 C191.16216,136.658834 190.85593,136.717113 190.558103,136.806324 C190.240461,136.930262 189.895289,136.966309 189.558893,136.910672 Z" id="Path" fill="#CC8294" fill-rule="nonzero"></path>
                <path d="M178.390514,126.178656 C178.172845,126.358821 177.98502,126.572258 177.833992,126.811067 C177.27747,127.66166 176.942292,128.850593 176.56917,129.362846 C176.082213,130.026877 175.936759,131.316996 175.936759,131.316996 C175.807115,132.164427 174.011067,136.69249 173.524111,137.495652 C173.037154,138.298814 172.360474,140.483794 172.360474,140.483794 C171.946245,141.002372 171.971542,141.773913 172.012648,142.140711 C172.012648,142.203953 172.012648,142.254545 172.031621,142.289328 C172.050593,142.324111 172.031621,142.349407 172.031621,142.349407 L172.031621,142.371542 L171.367589,143.500395 L169.255336,143.206324 L168.164427,142.466403 C168.253762,142.3213 168.333001,142.170218 168.401581,142.014229 C168.986561,140.711462 169.400791,138.38419 169.400791,138.38419 C169.400791,138.38419 169.988933,135.728063 169.944664,135.1083 C169.959496,134.262673 170.017543,133.418357 170.118577,132.578656 C170.118577,132.578656 171.781818,127.503557 172.313043,126.681423 C172.534451,126.35655 172.671385,125.981611 172.711462,125.590514 C172.721728,125.511796 172.721728,125.432078 172.711462,125.35336 L173.426087,124.641897 C173.426087,124.641897 179.30751,125.448221 178.390514,126.178656 Z" id="Path" fill="#D38884" fill-rule="nonzero"></path>
                <path d="M172.053755,142.128063 C172.053755,142.128063 172.053755,142.191304 172.053755,142.295652 L172.053755,142.377866 L171.389723,143.506719 L169.27747,143.212648 L168.186561,142.472727 C168.275897,142.327624 168.355135,142.176542 168.423715,142.020553 C168.954941,141.868775 170.16917,142.298814 170.16917,142.298814 C170.16917,142.298814 171.481423,142.548617 172.034783,142.147036 C172.034783,142.143874 172.041107,142.134387 172.053755,142.128063 Z" id="Path" fill="#000000" fill-rule="nonzero" opacity="0.1"></path>
                <path d="M171.53834,145.141502 L169.394466,145.653755 L167.427668,144.199209 L167.528854,143.380237 C167.666144,143.296135 167.788056,143.189195 167.889328,143.064032 C168.032846,142.895495 168.130819,142.693018 168.173913,142.475889 C168.287747,141.871937 170.156522,142.532806 170.156522,142.532806 C170.156522,142.532806 171.52253,142.792095 172.053755,142.358893 C172.016452,142.755975 172.050724,143.156529 172.154941,143.541502 C172.205584,143.729087 172.316737,143.894705 172.471146,144.012648 C173.018182,144.388933 171.53834,145.141502 171.53834,145.141502 Z" id="Path" fill="#CEDDF9" fill-rule="nonzero"></path>
                <path d="M171.53834,145.141502 L169.394466,145.653755 L167.427668,144.199209 L167.528854,143.380237 C167.666144,143.296135 167.788056,143.189195 167.889328,143.064032 C168.031621,143.064032 168.186561,143.064032 168.319368,143.064032 C168.635573,143.095652 169.426087,144.502767 169.426087,144.502767 C171.367589,144.632411 171.955731,143.996838 172.154941,143.528854 C172.205584,143.716438 172.316737,143.882057 172.471146,144 C173.018182,144.388933 171.53834,145.141502 171.53834,145.141502 Z" id="Path" fill="#000000" fill-rule="nonzero" opacity="0.1"></path>
                <path d="M169.426087,144.739921 C169.426087,144.739921 168.648221,143.332806 168.319368,143.304348 C168.041326,143.288732 167.762627,143.288732 167.484585,143.304348 C167.484585,143.304348 166.624506,145.343874 166.3083,145.517787 C165.992095,145.6917 165.530435,146.668775 165.530435,146.668775 C165.530435,146.668775 167.807115,148.882213 170.007905,148.449012 C170.710099,148.45912 171.400483,148.631175 172.025296,148.951779 C173.043478,149.483004 177.296443,149.081423 177.81502,148.148617 C178.200791,147.44664 178.355731,146.937549 178.014229,146.567589 C177.807115,146.353086 177.509162,146.251806 177.214229,146.295652 C176.679842,146.368379 175.478261,146.355731 174.425296,145.062451 C174.425296,145.062451 172.483794,143.285375 172.325692,143.282209 C172.167589,143.279051 172.455336,144.942292 169.426087,144.739921 Z" id="Path" fill="#CC8294" fill-rule="nonzero"></path>
                <path d="M186.175494,122.283004 L186.159684,122.301976 C186.026877,122.447431 185.090909,123.475099 184.806324,123.547826 C184.335777,123.725445 183.875509,123.929188 183.427668,124.158103 C183.427668,124.158103 182.852174,124.926482 182.393676,124.964427 C182.255048,124.984443 182.11922,125.020522 181.988933,125.071937 C181.925692,124.018972 181.856126,123.133597 181.856126,123.133597 L185.495652,120.989723 L185.919368,121.656917 C186.014229,121.925692 186.121739,122.175494 186.156522,122.254545 L186.175494,122.283004 Z" id="Path" fill="#000000" fill-rule="nonzero" opacity="0.1"></path>
                <path d="M172.945455,107.487747 C172.945455,107.487747 171.528854,109.334387 172.945455,111.78498 C173.707381,113.162605 174.691341,114.405108 175.857708,115.462451 L180.683004,125.46087 C180.683004,125.46087 181.947826,124.771542 182.409486,124.733597 C182.871146,124.695652 183.443478,123.930435 183.443478,123.930435 C183.891138,123.700211 184.35142,123.495407 184.822134,123.316996 C185.13834,123.241107 186.191304,122.052174 186.191304,122.052174 C186.191304,122.052174 185.663241,120.904348 185.780237,120.597628 C185.897233,120.290909 185.435573,119.52253 185.435573,119.52253 C185.29198,119.138458 185.186079,118.741332 185.119368,118.336759 C185.119368,118.020553 184.619763,117.302767 184.619763,117.302767 C184.619763,117.302767 184.12332,116.534387 184.12332,116.113834 C184.12332,115.693281 183.380237,114.033202 183.380237,114.033202 L183.187352,106.760474 L172.945455,107.487747 Z" id="Path" fill="#CEDDF9" fill-rule="nonzero"></path>
                <path d="M186.175494,122.052174 C186.175494,122.052174 185.113043,123.237945 184.806324,123.316996 C184.33561,123.495407 183.875328,123.700211 183.427668,123.930435 C183.427668,123.930435 182.852174,124.695652 182.393676,124.733597 C182.063417,124.802222 181.744204,124.916075 181.445059,125.071937 C181.033992,125.258498 180.664032,125.46087 180.664032,125.46087 L175.835573,115.462451 C175.412952,115.094021 175.020647,114.692199 174.662451,114.26087 C174.008541,113.490265 173.426411,112.661524 172.92332,111.78498 C172.369955,110.896183 172.173395,109.830918 172.373123,108.803162 C172.462801,108.332101 172.650231,107.88507 172.92332,107.490909 L176.357312,107.247431 L183.196838,106.760474 L183.253755,108.913834 L183.380237,114.033202 C183.380237,114.033202 183.490909,114.289328 183.63004,114.627668 C183.847377,115.098047 184.007673,115.592733 184.10751,116.101186 C184.10751,116.524901 184.603953,117.290119 184.603953,117.290119 C184.603953,117.290119 185.103557,118.017391 185.103557,118.324111 C185.170612,118.72964 185.276501,119.127782 185.419763,119.513043 C185.419763,119.513043 185.881423,120.278261 185.767589,120.581818 C185.653755,120.885375 186.175494,122.052174 186.175494,122.052174 Z" id="Path" fill="#000000" fill-rule="nonzero" opacity="0.05"></path>
                <path d="M178.390514,126.178656 C178.172845,126.358821 177.98502,126.572258 177.833992,126.811067 C175.750198,126.962846 173.328063,125.862451 172.698814,125.571542 C172.709079,125.492823 172.709079,125.413105 172.698814,125.334387 L173.413439,124.622925 C173.413439,124.622925 179.30751,125.448221 178.390514,126.178656 Z" id="Path" fill="#000000" fill-rule="nonzero" opacity="0.1"></path>
                <path d="M184.537549,109.754941 C184.537549,109.754941 184.221344,110.826877 184.116996,111.285375 C184.012648,111.743874 183.772332,114.007905 183.772332,114.007905 L183.639526,114.640316 L181.451383,125.075099 L180.973913,127.342292 C180.132806,127.803953 178.026877,126.573913 178.026877,126.573913 C175.573123,126.84585 172.547036,125.274308 172.547036,125.274308 C172.547036,125.274308 173.043478,123.664822 172.929644,122.86166 C172.81581,122.058498 173.618972,121.403953 173.618972,121.403953 C173.429249,120.67668 174.115415,117.495652 174.115415,117.495652 C174.115415,117.495652 174.270356,116.309881 174.84585,116.003162 C175.421344,115.696443 174.76996,115.237945 174.61502,114.966008 C174.560646,114.732031 174.57941,114.487002 174.668775,114.264032 C174.718535,114.087111 174.777643,113.912953 174.84585,113.742292 C173.38498,112.281423 173.160474,109.998419 173.157312,108.730435 C173.153312,108.421076 173.167037,108.111742 173.198419,107.803953 L176.360474,107.250593 L183.269565,106.042688 L183.974704,108.211858 L183.974704,108.211858 L184.151779,108.755731 L184.537549,109.754941 Z" id="Path" fill="#CEDDF9" fill-rule="nonzero"></path>
                <path d="M183.886166,80.4490119 C183.741108,80.7583067 183.634898,81.0843701 183.56996,81.4197628 C183.550988,81.5040843 183.532016,81.5926219 183.513043,81.6853755 C182.84585,82.1185771 182.434783,82.1217391 181.581028,82.1217391 C181.286957,82.1217391 181.12253,81.5588933 180.844269,81.4893281 C180.844269,81.4893281 180.426877,79.9841897 180.309881,81.2521739 C179.506719,81.087747 178.814229,81.713834 178.245059,81.1667984 L178.245059,81.1667984 C178.245059,81.0940711 178.245059,81.0213439 178.245059,80.9454545 C178.260523,80.4711888 178.238319,79.9964438 178.178656,79.5256917 C178.178656,79.5256917 180.407905,79.5256917 182.090119,79.7059289 C183.222134,79.8387352 184.104348,80.0632411 183.886166,80.4490119 Z" id="Path" fill="#000000" fill-rule="nonzero" opacity="0.1"></path>
                <path d="M185.467271,77.8687747 C185.465327,79.1506494 184.888345,80.3640373 183.895246,81.1745681 C182.902147,81.9850988 181.597749,82.3072231 180.341502,82.0521739 L180.341502,82.0521739 C178.413811,81.6549503 177.007576,79.9912313 176.937003,78.0243051 C176.86643,76.0573789 178.149815,74.2971569 180.044081,73.7628022 C181.938347,73.2284475 183.95242,74.0584877 184.920158,75.772332 C185.283026,76.4111512 185.471669,77.1341029 185.467271,77.8687747 Z" id="Path" fill="#D38884" fill-rule="nonzero"></path>
                <path d="M183.130435,84.5786561 C183.098814,84.9328063 183.083004,85.1604743 183.083004,85.1604743 C183.083004,85.1604743 176.224506,84.7019763 177.413439,83.5509881 C177.71997,83.2332319 177.937998,82.8407817 178.04585,82.4126482 L181.021344,82.8996047 C181.021344,82.8996047 181.862451,83.5509881 182.513834,84.1644269 C182.69933,84.330216 182.906821,84.4696078 183.130435,84.5786561 Z" id="Path" fill="#000000" fill-rule="nonzero" opacity="0.1"></path>
                <path d="M184.154941,108.973913 C183.853175,109.013984 183.546388,108.991379 183.253755,108.90751 C183.127037,108.867145 183.005102,108.81307 182.890119,108.746245 C182.314625,108.401581 180.401581,108.825296 180.401581,108.825296 C180.401581,108.825296 175.190514,109.16996 174.959684,108.825296 C174.83004,108.626087 173.909881,108.654545 173.157312,108.714625 C172.841107,108.739921 172.572332,108.771542 172.379447,108.790514 C172.469125,108.319453 172.656555,107.872422 172.929644,107.478261 L176.363636,107.234783 L183.272727,106.026877 L183.977866,108.196047 L183.977866,108.196047 C184.023563,108.458191 184.082666,108.71782 184.154941,108.973913 L184.154941,108.973913 Z" id="Path" fill="#000000" fill-rule="nonzero" opacity="0.1"></path>
                <path d="M181.011858,83.1304348 L177.274308,82.516996 C177.140658,82.8150353 176.88284,83.0393256 176.56917,83.1304348 C176.072727,83.2442688 173.849802,84.3952569 172.853755,85.773913 L171.857708,87.1557312 C171.857708,87.1557312 171.051383,88.1517787 171.320158,88.9549407 C171.588933,89.7581028 171.895652,92.4806324 171.895652,92.4806324 L172.278261,95.5067194 C172.278261,95.5067194 173.005534,97.6916996 172.777866,98.6498024 C172.550198,99.6079051 172.8917,103.63004 172.8917,103.63004 L172.126482,108.610277 C172.126482,108.610277 174.728854,108.265613 174.972332,108.610277 C175.21581,108.954941 180.414229,108.610277 180.414229,108.610277 C180.414229,108.610277 182.311462,108.186561 182.902767,108.531225 C183.289432,108.739771 183.732185,108.820573 184.167589,108.762055 C184.167589,108.762055 183.709091,107.181028 183.974704,106.311462 C184.240316,105.441897 184.167589,103.819763 184.167589,103.819763 C184.167589,103.819763 184.550198,101.483004 184.357312,101.062451 C184.164427,100.641897 184.781028,99.1083004 184.781028,99.1083004 L186.811067,88.4205534 C186.811067,88.4205534 186.564427,86.5043478 185.479842,85.8529644 C184.395257,85.201581 183.171542,85.0086957 182.520158,84.398419 C181.868775,83.7881423 181.011858,83.1304348 181.011858,83.1304348 Z" id="Path" fill="#4C4981" fill-rule="nonzero"></path>
                <path d="M182.747826,93.6664032 L182.747826,94.9312253 L183.927273,98.112253 L184.35415,101.062451 C184.35415,101.062451 185.12253,103.168379 185.12253,103.9083 C185.12253,104.648221 186.997628,108.161265 186.997628,108.161265 C186.997628,108.161265 187.509881,109.350198 187.253755,109.577866 C186.997628,109.805534 184.777866,114.864822 187.56996,114.713043 C190.362055,114.561265 189.486166,109.274308 189.486166,109.274308 L189.103557,106.975494 C189.103557,106.975494 188.566008,101.226877 188.566008,100.806324 C188.566008,100.806324 187.87668,98.3557312 187.800791,97.8181818 C187.724901,97.2806324 187.225296,94.5612648 187.225296,94.5612648 L186.804743,92.8 L182.747826,93.6664032 Z" id="Path" fill="#D38884" fill-rule="nonzero"></path>
                <polygon id="Path" fill="#000000" fill-rule="nonzero" opacity="0.1" points="181.403953 97.6505929 177.239526 100.034783 175.946245 101.988933 177.669565 100.237154"></polygon>
                <path d="M180.142292,102.216601 C180.142292,102.216601 178.245059,103.452964 177.35336,103.452964 C176.46166,103.452964 174.393676,105.577866 174.393676,105.577866 C174.393676,105.577866 177.324901,103.680632 177.555731,103.740711 C177.786561,103.800791 180.142292,102.216601 180.142292,102.216601 Z" id="Path" fill="#000000" fill-rule="nonzero" opacity="0.1"></path>
                <path d="M175.285375,102.87747 C175.285375,102.87747 173.505138,104.486957 173.963636,104.66087 C174.422134,104.834783 176.809486,102.87747 176.809486,102.87747 L175.285375,102.87747 Z" id="Path" fill="#000000" fill-rule="nonzero" opacity="0.1"></path>
                <path d="M183.158893,97.1320158 C183.158893,97.1320158 181.780237,99.0007905 182.15336,98.972332 C182.526482,98.9438735 183.588933,97.8782609 183.588933,97.8782609 L183.158893,97.1320158 Z" id="Path" fill="#000000" fill-rule="nonzero" opacity="0.1"></path>
                <path d="M183.358103,98.972332 C183.358103,98.972332 181.865613,100.667194 181.92253,101.097233 C181.979447,101.527273 183.358103,98.972332 183.358103,98.972332 Z" id="Path" fill="#000000" fill-rule="nonzero" opacity="0.1"></path>
                <path d="M183.734387,99.8197628 C183.734387,99.8197628 182.728854,101.61581 183.158893,101.988933 C183.588933,102.362055 183.734387,99.8197628 183.734387,99.8197628 Z" id="Path" fill="#000000" fill-rule="nonzero" opacity="0.1"></path>
                <path d="M182.431621,95.2063241 C182.431621,95.2063241 181.682213,96.4711462 182.229249,96.5565217 C182.776285,96.6418972 182.83004,96.5565217 182.83004,96.5565217 L182.431621,95.2063241 Z" id="Path" fill="#000000" fill-rule="nonzero" opacity="0.1"></path>
                <path d="M182.640316,90.5802372 C182.453653,91.3532613 182.19754,92.1078429 181.875099,92.8347826 C181.755073,92.4643279 181.655841,92.0874559 181.577866,91.7059289 C181.89332,91.295976 182.249267,90.9188418 182.640316,90.5802372 L182.640316,90.5802372 Z" id="Path" fill="#000000" fill-rule="nonzero" opacity="0.1"></path>
                <path d="M184.920158,75.772332 C184.846052,75.9339418 184.74915,76.0840872 184.632411,76.2181818 C184.436412,76.3948971 184.26231,76.5944772 184.113834,76.8126482 C183.996976,77.1386218 183.933964,77.4814457 183.927273,77.827668 C183.870356,78.16917 183.655336,78.5486166 183.294862,78.5581028 C183.117521,78.5431251 182.945232,78.4914384 182.788933,78.4063241 C182.629975,78.3239063 182.439632,78.3298919 182.286166,78.4221344 C182.186353,78.5236672 182.128729,78.6592546 182.124901,78.801581 C182.08119,79.0988044 182.064258,79.3993526 182.074308,79.6996047 C182.074308,79.8197628 182.074308,79.9367589 182.093281,80.056917 C182.181618,80.4348076 182.158553,80.8302004 182.026877,81.1952569 C181.861879,81.4595694 181.612212,81.660195 181.318577,81.7644269 C180.999728,81.8959553 180.666456,81.9893561 180.325692,82.0426877 L180.325692,82.0426877 C179.676467,82.1223706 179.021394,82.1435362 178.368379,82.1059289 C178.308097,82.1075618 178.24804,82.0979098 178.191304,82.0774704 C178.163359,82.0663572 178.13765,82.0502891 178.115415,82.0300395 C178.187728,81.6707516 178.226891,81.3055817 178.232411,80.9391304 C177.033619,79.7752884 176.624025,78.0190445 177.184273,76.4449565 C177.744521,74.8708685 179.171608,73.7683341 180.836145,73.6236049 C182.500682,73.4788757 184.096642,74.3185604 184.920158,75.772332 Z" id="Path" fill="#000000" fill-rule="nonzero" opacity="0.1"></path>
                <path d="M183.136759,72.1581028 C182.744664,72.116996 182.374704,72.3256917 181.988933,72.4110672 C181.195257,72.5849802 180.382609,72.2245059 179.566798,72.227668 C178.865447,72.2674899 178.183181,72.4710865 177.574704,72.8221344 C177.082603,73.054639 176.633538,73.3689848 176.24664,73.7517787 C175.85805,74.1408111 175.631963,74.6630721 175.614229,75.2126482 C175.668151,75.5275839 175.658475,75.8501279 175.585771,76.1612648 C175.503704,76.3180991 175.406255,76.4663902 175.294862,76.6039526 C175.090571,76.93197 175.040847,77.3332246 175.158893,77.7011858 C175.322365,78.0613255 175.543445,78.3924121 175.813439,78.6814229 C176.33834,79.3549407 176.667194,80.1612648 177.13834,80.8758893 C177.343869,81.186145 177.574413,81.4790833 177.827668,81.7517787 C177.869084,81.8001159 177.919575,81.8398642 177.976285,81.8687747 C178.032063,81.8884203 178.091134,81.8970125 178.150198,81.8940711 C179.149407,81.9225296 180.183399,81.944664 181.103557,81.5525692 C181.398324,81.4503742 181.648605,81.2492554 181.811858,80.9833992 C181.944584,80.6186522 181.968747,80.2232539 181.881423,79.8450593 C181.839536,79.4238596 181.849093,78.9991267 181.909881,78.5802372 C181.913875,78.4388752 181.971535,78.3043354 182.071146,78.2039526 C182.224842,78.1086348 182.417728,78.1026071 182.577075,78.1881423 C182.733391,78.2704829 182.904076,78.3220105 183.079842,78.3399209 C183.424506,78.3399209 183.642688,77.9478261 183.712253,77.6063241 C183.634881,76.9811884 183.905385,76.3637587 184.417391,75.9968379 C184.897791,75.3871514 185.058702,74.5849455 184.850593,73.8371542 C184.622925,73.1256917 183.927273,72.2371542 183.136759,72.1581028 Z" id="Path" fill="#1E1637" fill-rule="nonzero"></path>
                <path d="M187.237945,90.3177866 C187.153705,90.8414294 187.153705,91.3751714 187.237945,91.8988142 C187.2,92.3225296 187.237945,94.6592885 187.237945,94.6592885 C185.973123,94.2735178 182.757312,95.0418972 182.757312,95.0418972 L182.374704,93.8940711 C182.156312,93.6108739 181.993255,93.2890507 181.894071,92.9454545 C181.774052,92.5739275 181.67482,92.1960035 181.596838,91.8134387 C181.429862,91.0183811 181.304265,90.2151926 181.220553,89.4071146 C181.059289,88.1897233 182.871146,86.8774704 184.243478,86.1501976 C185.61581,85.4229249 186.817391,88.5249012 186.817391,88.5249012 C186.817391,88.5249012 187.389723,89.716996 187.237945,90.3177866 Z" id="Path" fill="#000000" fill-rule="nonzero" opacity="0.1"></path>
                <path d="M187.237945,90.0996047 C187.153975,90.6232692 187.153975,91.156968 187.237945,91.6806324 C187.2,92.1011858 187.237945,94.4379447 187.237945,94.4379447 C185.973123,94.055336 182.757312,94.8205534 182.757312,94.8205534 L182.374704,93.6727273 C182.155663,93.3899402 181.99254,93.0679877 181.894071,92.7241107 C181.774045,92.3536559 181.674813,91.9767839 181.596838,91.5952569 C181.430107,90.8001545 181.304511,89.9969787 181.220553,89.1889328 C181.059289,87.9683794 182.871146,86.6592885 184.243478,85.9288538 C185.61581,85.198419 186.817391,88.3035573 186.817391,88.3035573 C186.817391,88.3035573 187.389723,89.486166 187.237945,90.0996047 Z" id="Path" fill="#4C4981" fill-rule="nonzero"></path>
                <path d="M184.806324,73.8371542 C184.740601,73.6199269 184.645944,73.4125322 184.524901,73.2205534 C184.543874,73.2743083 184.562846,73.3249012 184.578656,73.3786561 C184.786765,74.1264475 184.625854,74.9286533 184.145455,75.5383399 C183.633448,75.9052606 183.362944,76.5226904 183.440316,77.1478261 C183.386561,77.4893281 183.168379,77.8656126 182.807905,77.8782609 C182.630565,77.8632832 182.458276,77.8115965 182.301976,77.7264822 C182.143018,77.6440644 181.952675,77.65005 181.799209,77.7422925 C181.699397,77.8438253 181.641772,77.9794127 181.637945,78.1217391 C181.576873,78.5406049 181.567315,78.9653725 181.609486,79.3865613 C181.644269,79.772332 181.720158,80.1865613 181.539921,80.5280632 C181.37326,80.7908949 181.124167,80.9910593 180.831621,81.0972332 C179.911462,81.4893281 178.87747,81.4671937 177.878261,81.4387352 C177.818995,81.4405838 177.759933,81.4309191 177.704348,81.4102767 C177.646327,81.3834607 177.595419,81.3433847 177.555731,81.2932806 C177.299852,81.0228407 177.069123,80.7296677 176.866403,80.4173913 C176.395257,79.7027668 176.066403,78.8996047 175.541502,78.2229249 C175.399209,78.0395257 175.225296,77.8592885 175.1083,77.6664032 L175.1083,77.7043478 C175.269506,78.0657427 175.490825,78.3971863 175.762846,78.684585 C176.284585,79.3581028 176.616601,80.1644269 177.084585,80.8790514 C177.290207,81.1900889 177.521869,81.4831046 177.777075,81.7549407 C177.817331,81.8031894 177.866774,81.8429581 177.92253,81.8719368 C177.978365,81.8913509 178.037391,81.8999365 178.096443,81.8972332 C179.095652,81.9256917 180.132806,81.9478261 181.049802,81.5557312 C181.344569,81.4535362 181.59485,81.2524175 181.758103,80.9865613 C181.890829,80.6218142 181.914992,80.2264159 181.827668,79.8482213 C181.78899,79.4269048 181.798538,79.0025498 181.856126,78.5833992 C181.862805,78.4426415 181.920069,78.3090252 182.017391,78.2071146 C182.171087,78.1117969 182.363973,78.1057692 182.52332,78.1913043 C182.679636,78.2736449 182.850321,78.3251725 183.026087,78.343083 C183.373913,78.343083 183.588933,77.9509881 183.658498,77.6094862 C183.663631,77.2631084 183.726689,76.920031 183.845059,76.5944664 C183.992583,76.3755617 184.166781,76.1758711 184.363636,76 C184.847398,75.3907744 185.01182,74.5874558 184.806324,73.8371542 Z" id="Path" fill="#000000" fill-rule="nonzero" opacity="0.2"></path>
                <path d="M215.633202,74.6687747 L212.901186,80.4743083 C212.901186,80.4743083 212.499605,81.5652174 212.240316,81.7675889 C211.981028,81.9699605 210.833202,85.4166008 210.833202,85.4166008 L207.901976,89.9320158 L207.901976,89.9320158 L207.702767,90.2482213 L206.554941,89.9320158 L205.748617,86.9217391 L205.796047,86.0490119 L205.796047,85.9383399 C205.796047,85.9383399 207.604743,84.0411067 208.009486,83.8988142 C208.009486,83.8988142 208.325692,83.9367589 208.926482,82.4664032 C209.527273,80.9960474 210.07747,80.6798419 210.07747,80.6798419 L210.393676,79.6173913 L213.786561,74.2134387 C213.786561,74.2134387 216.632411,70.1375494 217.407115,71.9462451 C218.181818,73.7549407 215.633202,74.6687747 215.633202,74.6687747 Z" id="Path" fill="#FFD2C6" fill-rule="nonzero"></path>
                <path d="M204.287747,115.9083 C204.278599,116.006791 204.247247,116.101928 204.196047,116.186561 C203.879842,116.648221 202.099605,126.042688 202.099605,126.042688 C202.241897,126.675099 201.840316,127.939921 201.581028,128.515415 C201.321739,129.090909 200.746245,132.075889 200.746245,132.075889 C200.746245,132.075889 200.603953,138.513834 200.233992,139.519368 C199.864032,140.524901 200.350988,142.681423 200.350988,142.681423 C200.316206,143.671146 200.910672,144.720949 201.264822,145.252174 L201.334387,145.35336 C201.448221,145.517787 201.524111,145.612648 201.524111,145.612648 C201.621577,145.804524 201.758415,145.973686 201.925692,146.109091 L202.007905,146.172332 C202.496532,146.49878 203.0427,146.72948 203.617391,146.852174 L203.674308,146.852174 C203.901976,146.902767 204.053755,146.924901 204.053755,146.924901 L204.196047,147.702767 L202.675099,148.018972 L199.772332,148.218182 C199.772332,148.218182 196.350988,148.480632 197.128854,146.95336 C197.182707,146.851408 197.229203,146.745737 197.267984,146.637154 L197.267984,146.637154 C197.298121,146.562633 197.324504,146.486648 197.347036,146.409486 C197.81502,144.945455 197.498814,143.165217 197.498814,143.165217 L196.837945,137.966798 C195.747036,133.13834 197.694862,127.766008 197.694862,127.766008 C197.694862,127.766008 197.527273,127.335968 197.900395,126.245059 C198.273518,125.15415 197.900395,122.766798 197.900395,122.766798 C197.900395,122.766798 197.701186,119.693281 197.441897,118.172332 C197.339707,117.531616 197.304735,116.881976 197.337549,116.233992 C197.35005,115.85493 197.384893,115.476936 197.441897,115.101976 L203.990514,114.232411 C203.990514,114.232411 204.366798,115.298024 204.287747,115.9083 Z" id="Path" fill="#FFD2C6" fill-rule="nonzero"></path>
                <path d="M204.196047,147.709091 L202.675099,148.025296 L199.772332,148.224506 C199.772332,148.224506 196.350988,148.486957 197.128854,146.959684 C197.182707,146.857732 197.229203,146.752061 197.267984,146.643478 L197.267984,146.643478 C197.298121,146.568957 197.324504,146.492972 197.347036,146.41581 C197.939872,146.435355 198.525386,146.552885 199.079842,146.763636 C200.053755,147.139921 200.787352,146.159684 200.787352,146.159684 L201.26166,145.255336 L201.331225,145.125692 C201.445059,145.290119 201.520949,145.38498 201.520949,145.38498 C201.635682,145.607177 201.801485,145.798989 202.004743,145.944664 L201.92253,146.112253 L201.464032,147.079842 C201.464032,147.079842 202.052174,147.139921 202.855336,147.269565 C203.177923,147.352964 203.509884,147.171769 203.614229,146.855336 L203.671146,146.855336 C203.898814,146.905929 204.050593,146.928063 204.050593,146.928063 L204.196047,147.709091 Z" id="Path" fill="#000000" fill-rule="nonzero" opacity="0.1"></path>
                <path d="M205.603162,148.423715 C205.489328,148.942292 202.286166,149.100395 202.286166,149.100395 C202.286166,149.100395 200.502767,148.929644 200.003162,149.343874 C199.503557,149.758103 198.033202,149.660079 197.976285,149.660079 C197.919368,149.660079 197.144664,149.631621 196.841107,148.240316 C196.537549,146.849012 197.236364,146.659289 197.267984,146.637154 L197.267984,146.637154 C197.887933,146.646158 198.501377,146.764993 199.079842,146.988142 C200.053755,147.364427 200.787352,146.38419 200.787352,146.38419 L201.331225,145.350198 C201.445059,145.514625 201.520949,145.609486 201.520949,145.609486 C201.635682,145.831683 201.801485,146.023495 202.004743,146.16917 L201.464032,147.304348 C201.464032,147.304348 202.052174,147.364427 202.855336,147.490909 C203.050262,147.535524 203.254921,147.490357 203.412962,147.367844 C203.571004,147.245331 203.665762,147.058392 203.671146,146.858498 C203.672742,146.830062 203.672742,146.801559 203.671146,146.773123 C203.671146,146.773123 204.170751,146.918577 204.790514,147.089328 C205.367042,147.255305 205.720268,147.835312 205.603162,148.423715 L205.603162,148.423715 Z" id="Path" fill="#626696" fill-rule="nonzero"></path>
                <path d="M211.639526,122.757312 C211.563636,123.21581 211.484585,124.404743 211.484585,124.404743 C211.75336,125.400791 211.064032,127.766008 211.064032,127.766008 L210.719368,129.116206 C210.871146,130.839526 209.770751,135.054545 209.770751,135.054545 C209.770751,135.054545 209.033992,138.962846 208.651383,140.648221 C208.422463,141.585156 208.492114,142.570211 208.850593,143.465613 L208.879051,143.535178 C208.879051,143.566798 208.894862,143.598419 208.901186,143.63004 C208.912601,143.676383 208.927397,143.721827 208.945455,143.766008 C209.031114,143.998068 209.158657,144.212426 209.321739,144.398419 C209.384538,144.474365 209.453264,144.545206 209.527273,144.610277 L209.527273,144.610277 C209.887703,144.929612 210.300637,145.184219 210.747826,145.362846 L210.747826,145.362846 L210.940711,145.438735 C211.140598,145.512844 211.344316,145.576176 211.550988,145.628458 L211.550988,145.628458 L211.620553,145.628458 L211.465613,146.532806 L209.435573,146.011067 L206.716206,145.128854 L205.397628,144.388933 C205.397628,144.388933 205.397628,144.316206 205.438735,144.177075 C205.440281,144.168714 205.440281,144.16014 205.438735,144.151779 C205.438735,144.0917 205.464032,144.022134 205.479842,143.939921 C205.688538,142.75415 206.207115,139.437154 205.947826,136.983399 C205.631621,133.957312 206.896443,129.780237 207.190514,128.787352 C207.373301,128.217958 207.451506,127.620178 207.421344,127.022925 C206.921739,126.295652 206.807905,123.383399 206.807905,123.383399 C206.807905,123.383399 205.887747,121.505138 205.128854,119.513043 C204.875957,118.862813 204.692591,118.187643 204.581818,117.498814 C204.491951,117.014129 204.454844,116.521135 204.471146,116.028458 C204.471146,116.028458 210.640316,110.396838 211.316996,115.848221 C211.33913,116.034783 211.361265,116.208696 211.383399,116.382609 C211.98419,121.394466 211.712253,122.311462 211.639526,122.757312 Z" id="Path" fill="#FFD2C6" fill-rule="nonzero"></path>
                <path d="M211.639526,145.653755 L211.484585,146.558103 L209.454545,146.036364 L206.735178,145.15415 L205.397628,144.388933 C205.397628,144.388933 205.397628,144.316206 205.438735,144.177075 C205.440281,144.168714 205.440281,144.16014 205.438735,144.151779 C205.438735,144.0917 205.464032,144.022134 205.479842,143.939921 L205.669565,143.939921 L205.669565,143.939921 C206.055896,143.902428 206.445649,143.955478 206.807905,144.094862 C207.250593,144.259289 207.832411,144.449012 207.949407,144.36996 C208.154785,144.282068 208.377776,144.243099 208.600791,144.256126 L208.882213,143.623715 L208.926482,143.528854 C209.011414,143.76126 209.139033,143.975746 209.302767,144.161265 C209.370609,144.240697 209.443487,144.315687 209.520949,144.385771 L209.520949,144.603953 L209.505138,144.920158 C209.808893,145.11357 210.137616,145.264634 210.482213,145.36917 C210.571497,145.391397 210.664867,145.391397 210.75415,145.36917 L210.75415,145.36917 L210.947036,145.445059 C211.146922,145.519168 211.35064,145.582501 211.557312,145.634783 L211.557312,145.634783 L211.639526,145.653755 Z" id="Path" fill="#000000" fill-rule="nonzero" opacity="0.1"></path>
                <path d="M210.621344,147.592095 C210.055336,147.43083 208.689328,147.168379 208.467984,147.370751 C208.24664,147.573123 206.352569,147.370751 206.352569,147.370751 C205.949064,147.364454 205.578331,147.147293 205.375494,146.798419 C204.980237,146.18498 205.299605,144.202372 205.299605,144.202372 L205.438735,144.202372 L205.672727,144.177075 L205.672727,144.177075 C206.058792,144.139729 206.448274,144.19166 206.811067,144.328854 C207.253755,144.496443 207.835573,144.686166 207.952569,144.607115 C208.157379,144.517117 208.380626,144.477019 208.603953,144.490119 L208.920158,143.778656 C209.005818,144.010716 209.133361,144.225074 209.296443,144.411067 C209.363497,144.490233 209.436432,144.564225 209.514625,144.632411 L209.486166,145.160474 C209.79025,145.354071 210.118853,145.506142 210.463241,145.612648 C210.634821,145.67776 210.828648,145.616207 210.931225,145.464032 C210.945815,145.439103 210.957486,145.412578 210.966008,145.38498 L210.966008,145.38498 C211.221995,145.50569 211.491688,145.59488 211.76917,145.650593 L211.76917,145.650593 C212.504532,145.573866 213.182098,146.056293 213.350198,146.776285 C213.650593,147.658498 211.187352,147.75336 210.621344,147.592095 Z" id="Path" fill="#626696" fill-rule="nonzero"></path>
                <path d="M204.287747,115.9083 L203.936759,116.01581 C203.661087,116.099535 203.378571,116.158789 203.09249,116.192885 C201.27747,116.449012 198.289328,116.294071 197.340711,116.233992 C197.353212,115.85493 197.388056,115.476936 197.445059,115.101976 L203.993676,114.232411 C203.993676,114.232411 204.366798,115.298024 204.287747,115.9083 Z" id="Path" fill="#000000" fill-rule="nonzero" opacity="0.1"></path>
                <path d="M210.001581,114.317787 C210.001581,114.317787 207.598419,114.690909 205.641107,115.117787 C204.989723,115.260079 204.376285,115.411858 203.936759,115.55415 C203.660824,115.637548 203.378426,115.697835 203.09249,115.734387 C200.913834,116.050593 197.043478,115.756522 197.043478,115.756522 C195.981028,112.309881 198.333597,107.968379 198.333597,107.968379 C198.279842,107.623715 198.823715,106.564427 198.823715,106.564427 L198.823715,106.529644 L199.158893,105.299605 L208.0917,105.299605 L208.202372,105.827668 L208.43004,106.902767 L209.833992,113.565217 L210.001581,114.317787 Z" id="Path" fill="#626696" fill-rule="nonzero"></path>
                <path d="M211.386561,116.407905 L211.332806,116.43004 L210.286166,116.894862 C209.15415,117.416601 205.767589,117.527273 204.594466,117.527273 C204.504599,117.042587 204.467492,116.549594 204.483794,116.056917 C204.483794,116.056917 210.652964,110.425296 211.329644,115.87668 C211.342292,116.060079 211.364427,116.24664 211.386561,116.407905 Z" id="Path" fill="#000000" fill-rule="nonzero" opacity="0.1"></path>
                <path d="M211.550988,115.873518 L211.332806,115.971542 L210.286166,116.436364 C209.135178,116.967589 205.637945,117.068775 204.518577,117.068775 L204.224506,117.068775 C203.709091,117.052964 203.190514,116.56917 203.190514,116.436364 C203.190514,116.366798 203.136759,116.025296 203.09249,115.734387 C203.051383,115.500395 203.019763,115.298024 203.019763,115.298024 C201.819279,114.781242 200.656945,114.179998 199.541502,113.498814 C198.665613,112.901186 198.886957,108.654545 199.054545,106.520158 C199.114625,105.783399 199.168379,105.299605 199.168379,105.299605 L208.211858,105.827668 L209.47668,105.900395 L210.200791,106.06166 L210.393676,106.102767 C210.393676,106.102767 210.915415,109.897233 211.171542,110.213439 C211.427668,110.529644 211.260079,111.592095 211.228458,112.199209 C211.228033,112.459768 211.199408,112.719515 211.143083,112.973913 C211.143083,112.973913 211.516206,114.036364 211.43083,114.63083 C211.391709,115.048931 211.432486,115.470658 211.550988,115.873518 L211.550988,115.873518 Z" id="Path" fill="#626696" fill-rule="nonzero"></path>
                <circle id="Oval" fill="#FFD2C6" fill-rule="nonzero" cx="201.868775" cy="80.6766798" r="3.70592885"></circle>
                <path d="M200.060079,82.2197628 C200.060079,82.2197628 200.316206,85.7296443 199.598419,86.5359684 C198.778158,87.3570938 197.914748,88.1339516 197.011858,88.8632411 L197.587352,91.2474308 L200.834783,91.6205534 L204.629249,87.5699605 L203.766008,86.5233202 C203.766008,86.5233202 203.105138,84.2814229 203.649012,83.1620553 C204.192885,82.0426877 200.060079,82.2197628 200.060079,82.2197628 Z" id="Path" fill="#FFD2C6" fill-rule="nonzero"></path>
                <path d="M207.901976,89.9320158 L207.901976,89.9320158 L207.702767,90.2482213 L206.554941,89.9320158 L205.748617,86.9217391 L205.796047,86.0490119 L206.033202,85.7075099 C206.033202,85.7075099 207.298024,85.7359684 207.244269,86.8869565 C207.190514,87.8924901 207.766008,89.5494071 207.901976,89.9320158 Z" id="Path" fill="#000000" fill-rule="nonzero" opacity="0.1"></path>
                <path d="M210.4,106.564427 C210.4,106.564427 209.486166,106.766798 208.439526,106.902767 C207.392885,107.038735 206.18498,107.111462 205.688538,106.820553 C204.856917,106.327273 200.350988,106.469565 199.048221,106.520158 L198.826877,106.520158 L199.162055,105.290119 L208.094862,105.290119 L208.205534,105.818182 L209.470356,105.890909 L210.194466,106.052174 C210.327273,106.362055 210.4,106.564427 210.4,106.564427 Z" id="Path" fill="#000000" fill-rule="nonzero" opacity="0.1"></path>
                <path d="M205.805534,85.9320158 C205.805534,85.9320158 207.070356,85.9604743 207.013439,87.1114625 C206.956522,88.2624506 207.702767,90.2418972 207.702767,90.2418972 L207.41502,90.9027668 C207.41502,90.9027668 207.013439,92.512253 207.329644,92.913834 C207.64585,93.315415 208.793676,93.315415 208.132806,96.6197628 C208.132806,96.6197628 207.990514,99.0924901 208.335178,99.8956522 C208.679842,100.698814 208.679842,102.624506 209.195257,103.43083 C209.665848,104.289166 210.069675,105.18245 210.403162,106.102767 C210.403162,106.102767 206.668775,106.934387 205.6917,106.362055 C204.714625,105.789723 198.709881,106.074308 198.709881,106.074308 C198.709881,106.074308 198.73834,105.068775 198.709881,104.951779 C198.653543,104.699109 198.705111,104.43439 198.852174,104.221344 C199.054545,103.946245 199.370751,103.487747 199.196838,103.086166 C199.022925,102.684585 199.626877,102.090119 199.310672,101.467194 C198.994466,100.844269 198.611858,100.720949 198.678261,100.379447 C198.712613,99.9838399 198.584793,99.5912487 198.324111,99.2916996 C198.096443,99.0039526 196.543874,95.9683794 196.543874,95.9683794 L196.284585,94.5517787 C196.284585,94.5517787 194.286166,93.087747 194.324111,92.398419 C194.362055,91.7090909 195.079842,90.7509881 195.079842,90.7509881 L197.002372,88.8537549 C197.002372,88.8537549 198.067984,90.001581 199.101976,89.6 C200.135968,89.198419 202.358893,87.2727273 202.358893,87.2727273 C202.358893,87.2727273 203.152569,86.8426877 203.209486,86.5264822 C203.266403,86.2102767 203.756522,86.4980237 203.756522,86.4980237 C203.756522,86.4980237 204.474308,86.1027668 204.616601,86.2418972 C204.860257,86.3689557 205.122987,86.4554646 205.394466,86.4980237 L205.805534,85.9320158 Z" id="Path" fill="#FFCDE5" fill-rule="nonzero"></path>
                <path d="M194.943874,91.9177866 L194.333597,92.398419 C193.869795,93.3796909 193.608468,94.4443558 193.565217,95.5288538 C193.403479,97.1596603 193.144787,98.7793905 192.790514,100.379447 L191.582609,102.53913 C191.582609,102.53913 189.6,106.703557 189.340711,107.810277 C189.081423,108.916996 187.905138,110.785771 187.905138,110.785771 C187.905138,110.785771 183.911462,114.374704 186.697233,115.022925 C189.483004,115.671146 189.571542,112.177075 189.571542,112.177075 C189.571542,112.177075 190.203953,111.459289 190.327273,110.96917 C190.450593,110.479051 193.966798,104.23083 193.966798,104.23083 C193.966798,104.23083 195.203162,102.548617 194.943874,101.656917 C194.943874,101.656917 196.55336,97.8624506 196.55336,96.913834 C196.523388,96.1202578 196.436738,95.3298384 196.294071,94.5486166 L196.55336,92.5660079 L194.943874,91.9177866 Z" id="Path" fill="#FFD2C6" fill-rule="nonzero"></path>
                <path d="M203.218972,99.8387352 C203.218972,99.8387352 200.404743,101.312253 199.857708,101.391304 C199.310672,101.470356 202.241897,101.075099 202.241897,101.075099 L203.218972,99.8387352 Z" id="Path" fill="#000000" fill-rule="nonzero" opacity="0.1"></path>
                <path d="M205.514625,100.986561 C205.514625,100.986561 201.780237,102.251383 200.13913,102.023715 C200.13913,102.017391 204.224506,102.798419 205.514625,100.986561 Z" id="Path" fill="#000000" fill-rule="nonzero" opacity="0.1"></path>
                <path d="M205.748617,101.400791 C205.748617,101.400791 202.38419,103.516206 200.404743,103.171542 C200.404743,103.171542 205.03083,104.0917 205.748617,103.601581 L203.680632,103.029249 C203.680632,103.029249 205.976285,101.811858 205.748617,101.400791 Z" id="Path" fill="#000000" fill-rule="nonzero" opacity="0.1"></path>
                <path d="M201.875099,74.1533597 C200.893828,73.9119688 199.856109,74.1068294 199.029249,74.687747 C198.453755,75.1399209 198.080632,75.8324111 197.422925,76.170751 C197.081343,76.3166009 196.730675,76.4401796 196.373123,76.5407115 C195.077017,77.0708678 194.312489,78.4195736 194.52332,79.8039526 C194.624506,80.3731225 194.890119,80.8980237 195.022925,81.4608696 C195.256917,82.4632411 195.048221,83.5130435 194.795257,84.512253 C194.087492,87.2827823 193.01347,89.9465707 191.601581,92.4332016 C191.490376,92.5873285 191.434648,92.7745749 191.443478,92.9644269 C191.479081,93.0920061 191.546544,93.2084351 191.639526,93.3027668 C192.967589,94.8363636 195.117787,95.3644269 197.157312,95.4339921 C197.906003,95.5080124 198.660947,95.382552 199.345455,95.0703557 C199.768242,94.8270619 200.132104,94.4934312 200.411067,94.0932806 C201.116692,93.1277921 201.467405,91.9483227 201.403953,90.7541502 C201.350198,89.7897233 201.027668,88.8158103 201.271146,87.883004 C201.295323,87.7527351 201.354329,87.6314457 201.441897,87.5320158 C201.660079,87.3075099 202.023715,87.3675889 202.333597,87.3296443 C203.177866,87.2316206 203.721739,86.343083 203.822925,85.4988142 C203.924111,84.6545455 203.712253,83.8071146 203.705929,82.96917 C203.702669,81.8472419 204.05344,80.7528807 204.7083,79.8418972 C204.989723,79.4561265 205.340711,79.0766798 205.441897,78.5928854 C205.562055,77.9857708 205.211067,77.5399209 204.90751,77.0624506 C204.436364,76.3162055 204.205534,75.4466403 203.487747,74.8774704 C203.014031,74.5136266 202.461767,74.2656492 201.875099,74.1533597 Z" id="Path" fill="#000000" fill-rule="nonzero" opacity="0.1"></path>
                <path d="M201.644269,73.9225296 C200.669012,73.6843558 199.63841,73.8791789 198.817391,74.456917 C198.241897,74.912253 197.868775,75.6047431 197.207905,75.943083 C196.865714,76.0864743 196.515135,76.2089656 196.158103,76.3098814 C194.864584,76.8394644 194.100608,78.1845859 194.3083,79.5667984 C194.409486,80.1359684 194.675099,80.6608696 194.807905,81.2237154 C195.041897,82.226087 194.836364,83.2758893 194.580237,84.2750988 C193.872824,87.0402425 192.799864,89.6987145 191.389723,92.1802372 C191.276154,92.3331913 191.220169,92.5212999 191.231621,92.7114625 C191.26411,92.8396206 191.330775,92.9565574 191.424506,93.0498024 C192.752569,94.5865613 194.902767,95.1114625 196.942292,95.1810277 C197.690669,95.2549809 198.445328,95.1306584 199.130435,94.8205534 C199.552692,94.5751816 199.916348,94.2406613 200.196047,93.8403162 C200.900314,92.8742976 201.249874,91.6949503 201.185771,90.5011858 C201.128854,89.5525692 200.806324,88.5628458 201.049802,87.6300395 C201.076615,87.5006539 201.135307,87.3800097 201.220553,87.2790514 C201.441897,87.0545455 201.802372,87.1146245 202.115415,87.0798419 C202.956522,86.9818182 203.500395,86.0901186 203.601581,85.2490119 C203.702767,84.4079051 203.490909,83.5573123 203.487747,82.7193676 C203.482988,81.5981838 203.833936,80.5043772 204.490119,79.5952569 C204.768379,79.2063241 205.12253,78.8268775 205.223715,78.3304348 C205.340711,77.7233202 204.989723,77.2806324 204.686166,76.8 C204.21502,76.056917 203.98419,75.1841897 203.266403,74.6150198 C202.786943,74.2611113 202.231499,74.0239918 201.644269,73.9225296 Z" id="Path" fill="#985C7E" fill-rule="nonzero"></path>
                <path d="M200.404743,109.84664 C200.404743,109.84664 201.141502,113.296443 202.368379,114.232411 L200.404743,109.84664 Z" id="Path" fill="#000000" fill-rule="nonzero" opacity="0.1"></path>
                <g id="Group" opacity="0.1" transform="translate(190.988142, 77.154150)" fill="#000000" fill-rule="nonzero">
                    <path d="M3.53833992,3.19051383 C3.50039526,3.05770751 3.45612648,2.92173913 3.40869565,2.78893281 C3.45928854,2.92490119 3.49090909,3.04505929 3.53833992,3.19051383 Z" id="Path"></path>
                    <path d="M14.0205534,0.199209486 C14.0337805,0.304196356 14.0337805,0.41042815 14.0205534,0.51541502 C13.9256917,0.999209486 13.5683794,1.37865613 13.2869565,1.76442688 C12.6326791,2.67570404 12.2819702,3.76987154 12.284585,4.8916996 C12.284585,5.74229249 12.4996047,6.58972332 12.398419,7.42134387 C12.2972332,8.25296443 11.7660079,9.1541502 10.912253,9.24901186 C10.5960474,9.28695652 10.2387352,9.22687747 10.0205534,9.4513834 C9.9343925,9.55216 9.87463009,9.67277143 9.84664032,9.80237154 C9.60316206,10.7351779 9.92885375,11.6996047 9.9826087,12.6735178 C10.0414196,13.8681014 9.68625696,15.0463923 8.9770751,16.0094862 C8.69898874,16.4104027 8.33493679,16.744207 7.91146245,16.9865613 C7.22812863,17.29893 6.4741531,17.4244107 5.72648221,17.3501976 C3.7312253,17.2837945 1.61581028,16.7683794 0.275098814,15.2916996 C0.239552999,15.3798779 0.228623803,15.4760548 0.243478261,15.5699605 C0.275967895,15.6981186 0.342632818,15.8150554 0.436363636,15.9083004 C1.76442688,17.4450593 3.91462451,17.9699605 5.9541502,18.0395257 C6.70252661,18.1134789 7.45718579,17.9891564 8.14229249,17.6790514 C8.56454938,17.4336796 8.92820533,17.0991593 9.20790514,16.6988142 C9.91217154,15.7327956 10.2617319,14.5534484 10.1976285,13.3596838 C10.1407115,12.4110672 9.81818182,11.4213439 10.0616601,10.4885375 C10.0884727,10.3591519 10.1471644,10.2385077 10.2324111,10.1375494 C10.4537549,9.91304348 10.8142292,9.97312253 11.1272727,9.93833992 C11.9683794,9.84031621 12.512253,8.9486166 12.6134387,8.10750988 C12.7146245,7.26640316 12.5027668,6.41581028 12.4996047,5.57786561 C12.4948452,4.45668178 12.8457933,3.36287524 13.5019763,2.45375494 C13.7802372,2.06482213 14.1343874,1.68537549 14.2355731,1.18893281 C14.2880112,0.843809776 14.2114634,0.491464557 14.0205534,0.199209486 L14.0205534,0.199209486 Z" id="Path"></path>
                </g>
                <ellipse id="Oval" fill="#FF7101" fill-rule="nonzero" opacity="0.1" cx="40.8474308" cy="158.450593" rx="6.69090909" ry="1"></ellipse>
                <path d="M43.1873518,147.263241 C43.1873518,147.263241 34.4600791,151.772332 38.96917,157.065613 C39.2295238,157.742388 39.8956014,158.174956 40.6197628,158.137549 C40.6197628,158.137549 40.3731225,157.6917 41.312253,157.334387 C41.6469932,157.20571 41.9653962,157.038018 42.2608696,156.834783 C42.657794,156.560561 42.9542573,156.164166 43.1051383,155.705929 L43.1051383,155.705929 C43.1051383,155.705929 44.8916996,153.318577 43.5067194,148.901186 C43.5067194,148.901186 43.6869565,147.636364 43.5288538,147.449802 L42.4695652,148.901186 C42.4695652,148.901186 43.5667984,149.637945 43.6932806,150.719368 C43.6932806,150.719368 42.5517787,148.904348 42.3019763,149.113043 C42.2513834,149.15415 41.7770751,149.906719 41.7770751,149.906719 C41.7770751,149.906719 43.6743083,151.196838 43.8166008,152.869565 C43.8166008,152.869565 42.7478261,150.526482 41.6031621,150.191304 L40.9517787,151.370751 C40.9517787,151.370751 43.026087,152.635573 43.2600791,154.532806 C43.2600791,154.532806 42.055336,152.12332 40.8252964,151.639526 L40.341502,152.885375 C40.341502,152.885375 42.3399209,154.150198 42.5233202,155.731225 C42.5233202,155.731225 40.8505929,153.087747 40.2498024,153.173123 C40.2498024,153.173123 39.8735178,154.343083 39.9335968,154.703557 C39.9335968,154.703557 41.3501976,155.652174 41.3754941,156.578656 C41.3754941,156.578656 40.0695652,154.928063 39.8671937,155.038735 C39.8671937,155.038735 39.7849802,156.695652 40.1833992,157.568379 C39.7724791,156.790328 39.5729474,155.918058 39.6047431,155.038735 C39.2002335,155.396023 38.9098961,155.864522 38.7699605,156.385771 C38.7699605,156.385771 38.3936759,155.471937 39.6300395,154.637154 C39.6300395,154.637154 39.7470356,153.347036 39.8893281,153.188933 C39.8893281,153.188933 38.5517787,153.840316 37.9920949,154.643478 C37.9920949,154.643478 38.2007905,153.448221 40.0158103,152.853755 L40.4774704,151.588933 C40.4774704,151.588933 38.6624506,152.357312 38.0996047,153.033992 C38.0996047,153.033992 38.5043478,151.848221 40.629249,151.279051 L41.2616601,150.115415 C41.2616601,150.115415 39.6490119,150.659289 38.8616601,151.279051 C38.8616601,151.279051 39.4719368,150.257708 41.4545455,149.789723 L41.9667984,149.059289 C41.9667984,149.059289 40.7936759,149.479842 40.4679842,149.628458 C40.1422925,149.777075 40.0758893,149.704348 40.0758893,149.704348 C40.6736279,149.198575 41.4008717,148.870001 42.1754941,148.755731 C42.1754941,148.755731 43.2664032,147.342292 43.1873518,147.263241 Z" id="Path" fill="#FF7101" fill-rule="nonzero"></path>
                <path d="M51.7849802,155.288538 C52.6988142,155.829249 54.1280632,156.180237 55.9272727,155.019763 L55.9083004,157.58419 C56.0379447,159.345455 58.2102767,165.751779 58.2102767,165.751779 L59.7438735,171.026087 C60.8438617,174.75045 61.4123216,178.611506 61.4324111,182.494862 C61.3931191,183.717468 61.5587815,184.938026 61.9225296,186.105929 C62.7383399,188.319368 61.6063241,191.165217 61.1067194,192.218182 C60.1960474,192.534387 59.256917,192.771542 58.5770751,192.929644 C58.4996808,192.947586 58.423612,192.970829 58.3494071,192.999209 L58.3494071,192.983399 C58.3494071,192.983399 56.0474308,193.897233 55.0229249,193.770751 C54.2608696,193.675889 53.7833992,194.627668 54.3905138,195.326482 C53.894245,195.4793 53.3758396,195.547708 52.856917,195.528854 C51.8324111,195.402372 51.3233202,197.163636 53.2395257,197.666403 C55.1557312,198.16917 66.0332016,197.666403 66.0332016,197.666403 C66.6630743,197.351679 67.000012,196.650484 66.8521739,195.962055 C67.6869565,195.930435 68.2086957,195.905138 68.2086957,195.905138 C68.2086957,195.905138 70.1280632,195.026087 68.2086957,192.638735 L68.1075099,192.717787 L67.6964427,191.509881 L67.6964427,189.875099 C67.6964427,189.875099 70.1280632,178.175494 69.3596838,176.809486 C68.5913043,175.443478 68.2086957,168.392095 68.2086957,168.392095 L68.4648221,160.727273 C69.1573123,159.294862 69.5146245,157.052964 69.6948617,155.298024 C69.9554315,154.460364 70.1198615,153.59578 70.1849802,152.720949 C70.2134387,152.309881 70.2387352,151.87668 70.2545455,151.427668 C70.2647,150.443867 70.1075198,149.465501 69.7897233,148.534387 C70.6547775,147.244577 71.6234617,146.027376 72.686166,144.894862 C73.5829678,144.061149 74.0131926,142.840209 73.8371542,141.628458 L73.2047431,137.356522 L71.6679842,130.083794 C71.8608696,128.060079 71.4403162,126.896443 70.972332,126.238735 C71.083004,125.587352 71.1873518,124.932806 71.2664032,124.278261 C71.606245,121.42768 71.4543701,118.539919 70.8173913,115.740711 C70.5960474,114.763636 70.2924901,113.761265 69.6094862,113.021344 C68.8316206,112.183399 67.5731225,111.671146 67.2853755,110.573913 C67.2409667,110.29588 67.1818589,110.020395 67.1083004,109.748617 C66.8268775,109.027668 65.9383399,108.768379 65.1604743,108.673518 C63.7754941,108.505929 61.773913,108.376285 60.4426877,108.920158 C59.5162055,109.302767 58.229249,110.346245 57.7264822,111.468775 C57.4233793,111.936202 57.3102689,112.501753 57.4102767,113.049802 C57.4587386,113.237395 57.5332441,113.417272 57.6316206,113.58419 C57.4261763,114.122523 57.3190747,114.693374 57.315415,115.269565 C57.3258017,117.284383 58.5674128,119.087854 60.4458498,119.816601 C60.4743083,119.911462 60.5027668,120.006324 60.5280632,120.101186 C60.5857943,120.325537 60.6270113,120.553816 60.6513834,120.78419 C60.629249,121.23004 60.6007905,121.675889 60.5786561,122.118577 C60.5666001,122.179582 60.5507592,122.239777 60.5312253,122.298814 C59.4299886,122.78643 58.3564278,123.334294 57.315415,123.939921 C58.0837945,125.068775 57.1889328,129.843478 57.1889328,129.843478 C55.2695652,130.975494 53.3501976,133.865613 55.3960474,136.879051 C57.4418972,139.89249 56.2909091,143.124111 56.2909091,143.124111 L55.9747036,148.037945 L55.9747036,148.037945 L55.9747036,148.037945 L55.9114625,149.018182 L55.9367589,149.018182 L55.9114625,149.391304 L55.9652174,149.391304 L55.9652174,149.792885 C55.0640316,150.109091 53.7517787,150.785771 52.970751,152.006324 C52.5995089,152.611989 52.1485708,153.165026 51.6300395,153.650593 C51.3724846,153.858482 51.2363393,154.181671 51.2675097,154.511187 C51.2986801,154.840703 51.4930122,155.132631 51.7849802,155.288538 L51.7849802,155.288538 Z M67.2316206,142.235573 C67.1547681,141.386237 67.3122555,140.532087 67.6869565,139.766008 C67.9873518,139.766008 68.2909091,139.766008 68.5913043,139.766008 C68.6229249,139.977866 68.6577075,140.180237 68.7019763,140.363636 C68.9612648,141.483004 67.9241107,142.011067 67.2316206,142.235573 Z" id="Shape" fill="url(#linearGradient-1)" fill-rule="nonzero"></path>
                <path d="M67.484585,190.934387 L67.9778656,192.411067 L66.3841897,194.011067 L61.0909091,195.241107 L57.2743083,194.871146 L57.5209486,193.517787 L57.5209486,193.517787 C57.6688656,192.924595 58.1365627,192.464225 58.7320158,192.325692 C60.3130435,191.955731 63.2916996,191.117787 63.9209486,189.947826 L67.484585,190.934387 Z" id="Path" fill="#DB8B8B" fill-rule="nonzero"></path>
                <path d="M67.484585,190.934387 L67.9778656,192.411067 L66.3841897,194.011067 L61.0909091,195.241107 L57.2743083,194.871146 L57.5209486,193.517787 L57.5209486,193.517787 C57.6688656,192.924595 58.1365627,192.464225 58.7320158,192.325692 C60.3130435,191.955731 63.2916996,191.117787 63.9209486,189.947826 L67.484585,190.934387 Z" id="Path" fill="#000000" fill-rule="nonzero" opacity="0.1"></path>
                <path d="M58.4980237,194.504348 L59.2379447,193.517787 L58.4980237,192.379447 C58.4980237,192.379447 56.284585,193.271146 55.2980237,193.147826 C54.3114625,193.024506 53.8213439,194.750988 55.6679842,195.241107 C57.5146245,195.731225 67.9778656,195.241107 67.9778656,195.241107 C67.9778656,195.241107 69.8245059,194.381028 67.9778656,192.041107 L66.3841897,193.271146 C66.3841897,193.271146 63.6743083,194.750988 62.3209486,194.504348 L58.4980237,194.504348 Z" id="Path" fill="#2E3037" fill-rule="nonzero"></path>
                <path d="M55.1747036,196.597628 L58.9913043,196.964427 L64.284585,195.734387 L65.884585,194.134387 L65.7549407,193.742292 L65.5715415,193.192095 L65.3944664,192.657708 L61.8245059,191.671146 C61.6434465,191.966952 61.3954096,192.216072 61.1003953,192.398419 C59.9399209,193.188933 57.8561265,193.761265 56.6355731,194.049012 L56.4806324,194.093281 C56.2433833,194.170863 56.0270506,194.301745 55.8482213,194.475889 C55.6336812,194.685341 55.4815196,194.950256 55.4086957,195.241107 L55.1747036,196.597628 Z" id="Path" fill="#DB8B8B" fill-rule="nonzero"></path>
                <path d="M55.1747036,196.597628 L58.9913043,196.964427 L64.284585,195.734387 L65.884585,194.134387 L65.7549407,193.742292 L64.284585,194.871146 C64.284585,194.871146 61.5778656,196.350988 60.2213439,196.104348 L56.4079051,196.104348 L57.144664,195.117787 L56.4806324,194.093281 C56.2433833,194.170863 56.0270506,194.301745 55.8482213,194.475889 C55.6336812,194.685341 55.4815196,194.950256 55.4086957,195.241107 L55.1747036,196.597628 Z" id="Path" fill="#000000" fill-rule="nonzero" opacity="0.1"></path>
                <path d="M56.4079051,196.227668 L57.144664,195.241107 L56.4079051,194.102767 C56.4079051,194.102767 54.1944664,194.994466 53.2047431,194.871146 C52.2150198,194.747826 51.7280632,196.474308 53.5747036,196.964427 C55.4213439,197.454545 65.884585,196.964427 65.884585,196.964427 C65.884585,196.964427 67.7312253,196.104348 65.884585,193.764427 L64.284585,194.981818 C64.284585,194.981818 61.5778656,196.46166 60.2213439,196.21502 L56.4079051,196.227668 Z" id="Path" fill="#2E3037" fill-rule="nonzero"></path>
                <path d="M59.484585,124.828458 C59.484585,124.828458 65.3944664,125.441897 64.5438735,122.981818 C64.3040444,122.282922 64.2410357,121.535508 64.3604743,120.806324 C64.5149303,119.902973 64.8728385,119.046589 65.4071146,118.301976 L59.8671937,119.165217 C60.1979295,119.720092 60.4501332,120.318145 60.6166008,120.942292 C61.2648221,123.55415 59.484585,124.828458 59.484585,124.828458 Z" id="Path" fill="#DB8B8B" fill-rule="nonzero"></path>
                <path d="M69.5778656,152.894862 C69.5778656,152.894862 69.4545455,158.188142 68.2245059,160.774704 L67.9652174,168.281423 C67.9652174,168.281423 68.3351779,175.174704 69.0719368,176.531225 C69.8086957,177.887747 67.4719368,189.334387 67.4719368,189.334387 L67.4719368,191.301186 C67.4719368,191.301186 63.5351779,192.781028 62.4126482,191.057708 L63.5383399,176.407905 L63.0545455,156.088538 L69.5778656,152.894862 Z" id="Path" fill="#474463" fill-rule="nonzero"></path>
                <path d="M69.5778656,152.894862 C69.5778656,152.894862 69.4545455,158.188142 68.2245059,160.774704 L67.9652174,168.281423 C67.9652174,168.281423 68.3351779,175.174704 69.0719368,176.531225 C69.8086957,177.887747 67.4719368,189.334387 67.4719368,189.334387 L67.4719368,191.301186 C67.4719368,191.301186 63.5351779,192.781028 62.4126482,191.057708 L63.5383399,176.407905 L63.0545455,156.088538 L69.5778656,152.894862 Z" id="Path" fill="#000000" fill-rule="nonzero" opacity="0.1"></path>
                <path d="M72.0411067,135.905138 L72.7778656,137.875099 L73.3944664,142.06166 C73.5639678,143.244461 73.1517692,144.436304 72.287747,145.26166 C70.8110672,146.73834 68.8411067,149.818182 68.8411067,149.818182 L66.5011858,142.807905 C66.5011858,142.807905 68.8411067,142.437945 68.4711462,140.837945 C68.1011858,139.237945 68.2245059,136.281423 68.2245059,136.281423 L72.0411067,135.905138 Z" id="Path" fill="#FC6681" fill-rule="nonzero"></path>
                <path d="M72.0411067,135.905138 L72.7778656,137.875099 L73.3944664,142.06166 C73.5639678,143.244461 73.1517692,144.436304 72.287747,145.26166 C70.8110672,146.73834 68.8411067,149.818182 68.8411067,149.818182 L66.5011858,142.807905 C66.5011858,142.807905 68.8411067,142.437945 68.4711462,140.837945 C68.1011858,139.237945 68.2245059,136.281423 68.2245059,136.281423 L72.0411067,135.905138 Z" id="Path" fill="#000000" fill-rule="nonzero" opacity="0.05"></path>
                <path d="M61.1003953,192.398419 C62.6814229,194.883794 65.1351779,193.473518 65.5715415,193.192095 L65.3944664,192.657708 L61.8245059,191.671146 C61.6434465,191.966952 61.3954096,192.216072 61.1003953,192.398419 L61.1003953,192.398419 Z" id="Path" fill="#000000" fill-rule="nonzero" opacity="0.1"></path>
                <path d="M56.1612648,157.694862 C56.284585,159.418182 58.3747036,165.698024 58.3747036,165.698024 L59.8513834,170.864822 C60.9110606,174.517359 61.4570136,178.299653 61.4735178,182.102767 C61.4421672,183.300627 61.6055588,184.495628 61.9573123,185.641107 C62.9438735,188.347826 60.973913,192.041107 60.973913,192.041107 C62.6972332,195.117787 65.6505929,193.027668 65.6505929,193.027668 L65.6505929,191.057708 C65.6505929,191.057708 67.9905138,180.347826 67.373913,178.254545 C66.7573123,176.161265 66.513834,170.498024 66.513834,170.498024 L66.513834,160.281423 C68.4805336,158.312223 69.6744955,155.702115 69.8782609,152.926482 C69.9098814,152.524901 69.9320158,152.101186 69.9478261,151.66166 C70.0490119,148.882213 68.1486166,145.628458 67.4181818,144.464822 C67.2411067,144.186561 67.1304348,144.028458 67.1304348,144.028458 L56.2466403,148.341502 L56.2213439,148.341502 L56.2213439,148.762055 L56.2213439,149.694862 L56.1612648,157.694862 Z" id="Path" fill="#474463" fill-rule="nonzero"></path>
                <path d="M59.8545455,119.165217 C60.1852813,119.720092 60.437485,120.318145 60.6039526,120.942292 C61.8186285,121.407052 63.1700635,121.357971 64.3478261,120.806324 C64.5022821,119.902973 64.8601903,119.046589 65.3944664,118.301976 L59.8545455,119.165217 Z" id="Path" fill="#000000" fill-rule="nonzero" opacity="0.1"></path>
                <circle id="Oval" fill="#DB8B8B" fill-rule="nonzero" cx="62.3146245" cy="116.211858" r="4.8"></circle>
                <path d="M56.1612648,149.694862 L56.2118577,149.694862 C61.3754941,150.75415 67.8545455,145.375494 67.8545455,145.375494 C67.6814178,145.081883 67.531298,144.775301 67.4055336,144.458498 C67.2284585,144.180237 67.1177866,144.022134 67.1177866,144.022134 L56.2466403,148.341502 L56.2181818,148.771542 L56.1612648,149.694862 Z" id="Path" fill="#000000" fill-rule="nonzero" opacity="0.1"></path>
                <path d="M57.5304348,124.705138 C57.5304348,124.705138 64.4237154,120.518577 66.6403162,122.241897 L69.716996,126.181818 C69.716996,126.181818 71.6869565,126.795257 71.316996,130.735178 L72.7936759,137.875099 L68.3667984,138.98498 C68.3667984,138.98498 65.7517787,141.445059 67.8545455,145.021344 C67.8545455,145.021344 61.3312253,150.437945 56.1549407,149.331225 L56.5217391,143.544664 C56.5217391,143.544664 57.6316206,140.344664 55.6616601,137.391304 C53.6916996,134.437945 55.5383399,131.604743 57.3849802,130.494862 C57.3913043,130.475889 58.2545455,125.811858 57.5304348,124.705138 Z" id="Path" fill="#FC6681" fill-rule="nonzero"></path>
                <path d="M57.144664,149.818182 C57.144664,149.818182 54.5612648,150.3083 53.3280632,152.278261 C52.974092,152.870664 52.5411323,153.41213 52.0411067,153.887747 C51.8129515,154.095256 51.6961604,154.398303 51.7260465,154.705258 C51.7559326,155.012213 51.9289873,155.287039 52.1928854,155.44664 C53.1699605,156.031621 54.7636364,156.395257 56.7747036,154.741502 C60.2213439,151.9083 57.144664,149.818182 57.144664,149.818182 Z" id="Path" fill="#DB8B8B" fill-rule="nonzero"></path>
                <path d="M60.9612648,127.041897 C60.9612648,127.041897 63.4245059,126.795257 64.0379447,133.198419 C64.6513834,139.601581 65.6379447,141.078261 65.6379447,141.078261 C65.6379447,141.078261 66.2545455,144.401581 64.7778656,146.371542 C63.3011858,148.341502 60.4679842,152.524901 60.4679842,152.524901 C60.4679842,152.524901 57.3913043,153.388142 56.7747036,150.311462 L60.5913043,143.171542 C60.5913043,143.171542 61.2079051,140.711462 59.7312253,138.988142 C58.2545455,137.264822 57.144664,125.811858 60.9612648,127.041897 Z" id="Path" fill="#000000" fill-rule="nonzero" opacity="0.1"></path>
                <path d="M60.7146245,126.681423 C60.7146245,126.681423 63.1778656,126.434783 63.7913043,132.834783 C64.4047431,139.234783 65.3944664,140.714625 65.3944664,140.714625 C65.3944664,140.714625 66.0079051,144.037945 64.5312253,146.007905 C63.0545455,147.977866 60.2213439,152.161265 60.2213439,152.161265 C60.2213439,152.161265 57.144664,153.024506 56.5280632,149.947826 L60.344664,142.807905 C60.344664,142.807905 60.9612648,140.344664 59.484585,138.621344 C58.0079051,136.898024 56.8980237,125.441897 60.7146245,126.681423 Z" id="Path" fill="#FC6681" fill-rule="nonzero"></path>
                <path d="M58.684585,131.288538 C58.684585,131.288538 58.4379447,135.105138 59.544664,137.198419 C60.6513834,139.2917 60.6545455,141.998419 59.544664,143.478261" id="Path" fill="#000000" fill-rule="nonzero" opacity="0.1"></path>
                <path d="M58.0679842,126.611858 C58.0679842,126.611858 59.0545455,125.628458 61.884585,125.505138 C64.7146245,125.381818 65.9478261,124.518577 65.9478261,124.518577" id="Path" fill="#000000" fill-rule="nonzero" opacity="0.1"></path>
                <path d="M64.916996,110.004743 C65.6632411,110.096443 66.5201581,110.352569 66.7889328,111.057708 C66.8600704,111.32434 66.9170668,111.594545 66.9596838,111.867194 C67.2379447,112.942292 68.4490119,113.448221 69.1952569,114.267194 C69.8561265,114.991304 70.1438735,115.974704 70.3588933,116.929644 C70.9717851,119.673436 71.1182334,122.500851 70.7920949,125.293281 C70.5517787,127.335968 70.0616601,129.347036 69.9225296,131.396047 C69.7833992,133.445059 70.0363636,135.604743 71.1588933,137.328063 C71.6395257,138.067984 72.2750988,138.719368 72.6166008,139.541502 C71.9114625,140.113834 70.9375494,140.196047 70.0300395,140.227668 C68.9760211,140.261397 67.9220026,140.261397 66.8679842,140.227668 C66.309972,140.251016 65.754858,140.135865 65.2521739,139.89249 C64.8966181,139.666216 64.6048859,139.352713 64.4047431,138.981818 C63.8007905,137.95415 63.6458498,136.720949 63.6711462,135.525692 C63.6964427,134.330435 63.886166,133.147826 63.9083004,131.955731 C63.9083004,131.304348 63.8703557,130.61502 63.4972332,130.083794 C63.190413,129.728667 62.8434295,129.410334 62.4632411,129.135178 C61.1478261,127.968379 60.6956522,126.093281 60.6513834,124.335178 C60.6071146,122.577075 60.8948617,120.812648 60.7462451,119.057708 C60.6893281,118.371542 60.4300395,117.546245 59.7565217,117.413439 C59.5439706,117.401759 59.3325832,117.374279 59.1241107,117.331225 C58.5802372,117.12253 58.6339921,116.357312 58.4916996,115.797628 C58.3177866,115.165217 57.7833992,114.684585 57.6316206,114.049012 C57.2774704,112.559684 59.1715415,110.782609 60.4142292,110.254545 C61.656917,109.726482 63.5826087,109.840316 64.916996,110.004743 Z" id="Path" fill="#000000" fill-rule="nonzero" opacity="0.1"></path>
                <path d="M65.0403162,109.758103 C65.7865613,109.852964 66.6403162,110.109091 66.912253,110.811067 C66.9837106,111.07869 67.04071,111.349965 67.083004,111.623715 C67.3612648,112.698814 68.572332,113.204743 69.3185771,114.020553 C69.9794466,114.744664 70.2671937,115.728063 70.4822134,116.683004 C71.0951052,119.426796 71.2415536,122.254211 70.915415,125.04664 C70.6750988,127.089328 70.1849802,129.100395 70.0458498,131.149407 C69.9067194,133.198419 70.1596838,135.358103 71.2822134,137.081423 C71.7628458,137.821344 72.398419,138.472727 72.7399209,139.294862 C72.0347826,139.867194 71.0608696,139.949407 70.1533597,139.981028 C69.0993412,140.014756 68.0400527,140.014756 66.9754941,139.981028 C66.4174819,140.004376 65.8623679,139.889225 65.3596838,139.64585 C65.0049762,139.419916 64.7134003,139.107668 64.512253,138.73834 C63.9051383,137.70751 63.7533597,136.474308 63.7786561,135.279051 C63.8039526,134.083794 63.9936759,132.901186 64.0158103,131.709091 C64.0158103,131.06087 63.9778656,130.368379 63.6047431,129.837154 C63.2971022,129.482824 62.9502154,129.16458 62.570751,128.888538 C61.255336,127.721739 60.8,125.849802 60.7557312,124.088538 C60.7114625,122.327273 61.0023715,120.566008 60.8537549,118.811067 C60.7968379,118.124901 60.5375494,117.299605 59.8640316,117.166798 C59.6514805,117.155119 59.4400931,117.127638 59.2316206,117.084585 C58.687747,116.875889 58.741502,116.110672 58.5992095,115.550988 C58.4252964,114.918577 57.8909091,114.437945 57.7391304,113.802372 C57.3849802,112.316206 59.2790514,110.535968 60.5217391,110.007905 C61.7644269,109.479842 63.7059289,109.606324 65.0403162,109.758103 Z" id="Path" fill="#472727" fill-rule="nonzero"></path>
                <ellipse id="Oval" fill="#FF7101" fill-rule="nonzero" opacity="0.1" cx="303.917787" cy="219.342292" rx="7.58893281" ry="1.04347826"></ellipse>
                <ellipse id="Oval" fill="#FF7101" fill-rule="nonzero" opacity="0.1" cx="274.84585" cy="222.29249" rx="7.58893281" ry="1.04347826"></ellipse>
                <ellipse id="Oval" fill="#FF7101" fill-rule="nonzero" opacity="0.1" cx="240.603953" cy="218.301976" rx="7.58893281" ry="1.04347826"></ellipse>
                <ellipse id="Oval" fill="#FF7101" fill-rule="nonzero" opacity="0.1" cx="286.482213" cy="230.684585" rx="5.3944664" ry="1"></ellipse>
                <ellipse id="Oval" fill="#FF7101" fill-rule="nonzero" opacity="0.1" cx="256.309881" cy="229.941502" rx="5.3944664" ry="1"></ellipse>
                <path d="M274.684585,222.055336 C274.684585,222.055336 285.328063,187.165217 273.018182,173.188933 C263.810277,162.735178 253.359684,163.98419 248.670356,165.283794 C246.218454,165.937606 244.177029,167.634555 243.086166,169.925692 C241.451383,173.454545 241.745455,179.187352 253.299605,185.875099 C272.641897,197.071937 273.852964,212.436364 273.852964,212.436364 L274.684585,222.055336 Z" id="Path" fill="#FF7101" fill-rule="nonzero"></path>
                <path d="M250.343083,170.226087 C250.343083,170.226087 281.720158,180.028458 274.690909,222.055336" id="Path" stroke="#565987"></path>
                <path d="M268.670356,173.745455 C268.670356,173.745455 264.347826,176.654545 265.72332,181.018182" id="Path" stroke="#565987"></path>
                <path d="M253.489328,176.325692 C253.489328,176.325692 256.132806,173.637945 259.345455,175.120949" id="Path" stroke="#565987"></path>
                <path d="M265.909881,189.84664 C265.909881,189.84664 270.545455,187.494071 271.743874,190.441107" id="Path" stroke="#565987"></path>
                <path d="M277.36917,194.75415 C277.36917,194.75415 273.890909,194.475889 273.824506,196.142292" id="Path" stroke="#565987"></path>
                <path d="M275.114625,222.333597 C275.114625,222.333597 262.649802,196.973913 259.225296,197.530435 C257.6,197.792885 256.850593,199.392885 256.509091,201.008696 C256.088966,203.086805 256.326586,205.244174 257.188933,207.181028 C258.95336,211.231621 263.696443,218.937549 275.114625,222.333597 Z" id="Path" fill="#FF7101" fill-rule="nonzero"></path>
                <path d="M259.316996,202.343083 C259.316996,202.343083 272.401581,221.315415 274.931225,222.150198" id="Path" stroke="#565987"></path>
                <path d="M258.112253,205.305929 L261.166798,205.305929" id="Path" stroke="#565987"></path>
                <path d="M261.770751,212.24664 L266.558103,212.452174" id="Path" stroke="#565987"></path>
                <path d="M264.683004,206.694071 L264.164427,209.188933" id="Path" stroke="#565987"></path>
                <path d="M269.773913,214.283004 L269.682213,216.550198" id="Path" stroke="#565987"></path>
                <path d="M274.744664,222.333597 C274.744664,222.333597 287.209486,196.973913 290.633992,197.530435 C292.262451,197.792885 293.011858,199.392885 293.350198,201.008696 C293.770323,203.086805 293.532702,205.244174 292.670356,207.181028 C290.890119,211.231621 286.147036,218.937549 274.744664,222.333597 Z" id="Path" fill="#FF7101" fill-rule="nonzero"></path>
                <path d="M290.542292,202.343083 C290.542292,202.343083 277.457708,221.315415 274.931225,222.150198" id="Path" stroke="#565987"></path>
                <path d="M291.743874,205.305929 L288.689328,205.305929" id="Path" stroke="#565987"></path>
                <path d="M288.085375,212.24664 L283.298024,212.452174" id="Path" stroke="#565987"></path>
                <path d="M285.173123,206.694071 L285.6917,209.188933" id="Path" stroke="#565987"></path>
                <path d="M280.082213,214.283004 L280.173913,216.550198" id="Path" stroke="#565987"></path>
                <path d="M253.340711,228.256126 C253.001033,227.979215 252.753931,227.605253 252.632411,227.18419 C252.518118,226.748826 252.725513,226.293084 253.128854,226.093281 C253.58419,225.919368 254.07747,226.235573 254.437945,226.554941 C254.798419,226.874308 255.228458,227.237945 255.702767,227.171542 C255.198401,226.712199 254.970592,226.022776 255.101976,225.35336 C255.124038,225.218308 255.18191,225.091643 255.269565,224.986561 C255.52253,224.714625 255.981028,224.831621 256.284585,225.043478 C257.233202,225.720158 257.514625,227.029249 257.520949,228.205534 C257.568447,227.772577 257.568447,227.335724 257.520949,226.902767 C257.483782,226.461637 257.667288,226.030693 258.011067,225.751779 C258.23977,225.627775 258.497279,225.566671 258.757312,225.574704 C259.19159,225.512984 259.631677,225.638231 259.968379,225.919368 C260.335178,226.311462 260.240316,226.972332 259.920949,227.405534 C259.561239,227.81109 259.133136,228.150361 258.656126,228.407905 C258.298221,228.622613 257.992553,228.914239 257.761265,229.26166 C257.735348,229.310513 257.713151,229.361249 257.694862,229.413439 L254.98498,229.413439 C254.387351,229.103348 253.834276,228.714068 253.340711,228.256126 L253.340711,228.256126 Z" id="Path" fill="#FF7101" fill-rule="nonzero"></path>
                <path d="M300.841107,218.042688 C300.501428,217.765776 300.254326,217.391814 300.132806,216.970751 C300.019691,216.537172 300.225391,216.083575 300.626087,215.883004 C301.081423,215.705929 301.574704,216.022134 301.93834,216.341502 C302.301976,216.66087 302.728854,217.024506 303.203162,216.973913 C302.698796,216.51457 302.470987,215.825148 302.602372,215.155731 C302.624433,215.02068 302.682306,214.894015 302.76996,214.788933 C303.022925,214.516996 303.481423,214.633992 303.78498,214.84585 C304.733597,215.52253 305.01502,216.831621 305.021344,218.007905 C305.068842,217.574948 305.068842,217.138095 305.021344,216.705138 C304.984177,216.264008 305.167683,215.833064 305.511462,215.55415 C305.740165,215.430146 305.997674,215.369042 306.257708,215.377075 C306.691057,215.314652 307.130458,215.440031 307.465613,215.721739 C307.835573,216.113834 307.737549,216.774704 307.418182,217.207905 C307.058699,217.613701 306.630551,217.953008 306.15336,218.210277 C305.795454,218.424984 305.489786,218.716611 305.258498,219.064032 C305.232581,219.112884 305.210384,219.163621 305.192095,219.21581 L302.482213,219.21581 C301.884766,218.900586 301.332721,218.505965 300.841107,218.042688 L300.841107,218.042688 Z" id="Path" fill="#FF7101" fill-rule="nonzero"></path>
                <path d="M285.011858,228.256126 C284.671311,227.97939 284.423143,227.605483 284.300395,227.18419 C284.186102,226.748826 284.393498,226.293084 284.796838,226.093281 C285.252174,225.919368 285.745455,226.235573 286.109091,226.554941 C286.472727,226.874308 286.899605,227.237945 287.373913,227.171542 C286.86737,226.713614 286.639146,226.022937 286.773123,225.35336 C286.793786,225.217887 286.851823,225.090862 286.940711,224.986561 C287.193676,224.714625 287.649012,224.831621 287.952569,225.043478 C288.901186,225.720158 289.185771,227.029249 289.188933,228.205534 C289.242741,227.773269 289.249103,227.336415 289.207905,226.902767 C289.16942,226.462108 289.351805,226.031016 289.694862,225.751779 C289.923726,225.628199 290.181119,225.567123 290.441107,225.574704 C290.875412,225.512577 291.315663,225.63787 291.652174,225.919368 C292.018972,226.311462 291.924111,226.972332 291.604743,227.405534 C291.244585,227.810616 290.816571,228.149816 290.339921,228.407905 C289.980699,228.620879 289.674678,228.912842 289.445059,229.26166 C289.417832,229.309869 289.395583,229.360724 289.378656,229.413439 L286.665613,229.413439 C286.064532,229.104278 285.508201,228.714953 285.011858,228.256126 L285.011858,228.256126 Z" id="Path" fill="#FF7101" fill-rule="nonzero"></path>
                <path d="M240.113834,207.611067 C240.113834,207.611067 239.095652,208.93913 240.581818,210.947036 C242.067984,212.954941 243.294862,214.649802 242.795257,215.901976 C242.795257,215.901976 240.55336,212.173913 238.728854,212.10751 C236.904348,212.041107 238.105929,209.843478 240.113834,207.611067 Z" id="Path" fill="#FF7101" fill-rule="nonzero"></path>
                <path d="M240.113834,207.611067 C240.024006,207.739109 239.953675,207.879771 239.905138,208.028458 C238.124901,210.118577 237.176285,212.072727 238.886957,212.120158 C240.483794,212.167589 242.396838,215.019763 242.852174,215.737549 C242.839043,215.793809 242.821057,215.848824 242.798419,215.901976 C242.798419,215.901976 240.556522,212.173913 238.732016,212.10751 C236.90751,212.041107 238.105929,209.843478 240.113834,207.611067 Z" id="Path" fill="#000000" fill-rule="nonzero" opacity="0.1"></path>
                <path d="M238.222925,209.305929 C238.222925,209.773913 238.27668,210.15336 238.339921,210.15336 C238.403162,210.15336 238.456917,209.773913 238.456917,209.305929 C238.456917,208.837945 238.393676,209.059289 238.327273,209.059289 C238.26087,209.059289 238.222925,208.837945 238.222925,209.305929 Z" id="Path" fill="#FFD037" fill-rule="nonzero"></path>
                <path d="M237.574704,209.865613 C237.985771,210.086957 238.343083,210.222925 238.374704,210.166008 C238.406324,210.109091 238.099605,209.881423 237.688538,209.656917 C237.27747,209.432411 237.438735,209.596838 237.407115,209.656917 C237.375494,209.716996 237.163636,209.641107 237.574704,209.865613 Z" id="Path" fill="#FFD037" fill-rule="nonzero"></path>
                <path d="M245.486166,207.611067 C245.486166,207.611067 246.501186,208.93913 245.01502,210.947036 C243.528854,212.954941 242.305138,214.649802 242.801581,215.901976 C242.801581,215.901976 245.043478,212.173913 246.871146,212.10751 C248.698814,212.041107 247.494071,209.843478 245.486166,207.611067 Z" id="Path" fill="#FF7101" fill-rule="nonzero"></path>
                <path d="M245.486166,207.611067 C245.574264,207.739665 245.643478,207.880224 245.6917,208.028458 C247.475099,210.118577 248.423715,212.072727 246.709881,212.120158 C245.128854,212.167589 243.203162,215.019763 242.744664,215.737549 C242.744664,215.794466 242.779447,215.848221 242.798419,215.901976 C242.798419,215.901976 245.040316,212.173913 246.867984,212.10751 C248.695652,212.041107 247.494071,209.843478 245.486166,207.611067 Z" id="Path" fill="#000000" fill-rule="nonzero" opacity="0.1"></path>
                <path d="M247.373913,209.305929 C247.373913,209.773913 247.32332,210.15336 247.256917,210.15336 C247.190514,210.15336 247.139921,209.773913 247.139921,209.305929 C247.139921,208.837945 247.206324,209.059289 247.269565,209.059289 C247.332806,209.059289 247.373913,208.837945 247.373913,209.305929 Z" id="Path" fill="#FFD037" fill-rule="nonzero"></path>
                <path d="M248.025296,209.865613 C247.614229,210.086957 247.253755,210.222925 247.225296,210.166008 C247.196838,210.109091 247.500395,209.881423 247.911462,209.656917 C248.32253,209.432411 248.161265,209.596838 248.192885,209.656917 C248.224506,209.716996 248.436364,209.641107 248.025296,209.865613 Z" id="Path" fill="#FFD037" fill-rule="nonzero"></path>
                <path d="M247.051383,215.728063 C247.051383,215.728063 244.205534,215.639526 243.351779,215.029249 C242.498024,214.418972 238.978656,213.6917 238.766798,214.671937 C238.554941,215.652174 234.4917,219.53834 237.704348,219.563636 C240.916996,219.588933 245.160474,219.064032 246.017391,218.542292 C246.874308,218.020553 247.051383,215.728063 247.051383,215.728063 Z" id="Path" fill="#A8A8A8" fill-rule="nonzero"></path>
                <path d="M237.644269,219.222134 C240.856917,219.247431 245.103557,218.72253 245.960474,218.200791 C246.608696,217.805534 246.871146,216.382609 246.956522,215.724901 L247.051383,215.724901 C247.051383,215.724901 246.871146,218.017391 246.017391,218.53913 C245.163636,219.06087 240.913834,219.585771 237.704348,219.560474 C236.777866,219.560474 236.455336,219.222134 236.474308,218.735178 C236.603953,219.032411 236.954941,219.21581 237.644269,219.222134 Z" id="Path" fill="#000000" fill-rule="nonzero" opacity="0.2"></path>
                <ellipse id="Oval" fill="#FF7101" fill-rule="nonzero" opacity="0.1" cx="52.8980237" cy="223.585771" rx="10.9786561" ry="1.62213439"></ellipse>
                <ellipse id="Oval" fill="#FF7101" fill-rule="nonzero" opacity="0.1" cx="79.4814229" cy="238.147036" rx="10.9786561" ry="1.62213439"></ellipse>
                <ellipse id="Oval" fill="#FF7101" fill-rule="nonzero" opacity="0.1" cx="196.762055" cy="200.205534" rx="7.26956522" ry="1"></ellipse>
                <ellipse id="Oval" fill="#FF7101" fill-rule="nonzero" opacity="0.1" cx="162.779447" cy="223.585771" rx="7.26956522" ry="1"></ellipse>
                <ellipse id="Oval" fill="#FF7101" fill-rule="nonzero" opacity="0.1" cx="147.459289" cy="238.147036" rx="7.26956522" ry="1"></ellipse>
            </g>
        </g>
    </g>
</svg>